<svg width="510" height="95" xmlns="http://www.w3.org/2000/svg" xmlns:xlink="http://www.w3.org/1999/xlink" overflow="hidden"><defs><clipPath id="clip0"><rect x="322" y="161" width="510" height="95"/></clipPath><clipPath id="clip1"><rect x="322" y="161" width="510" height="94"/></clipPath><clipPath id="clip2"><rect x="322" y="161" width="510" height="94"/></clipPath></defs><g clip-path="url(#clip0)" transform="translate(-322 -161)"><g clip-path="url(#clip1)"><g clip-path="url(#clip2)"><path d="M63.4747 66.0619 472.738 66.0619" stroke="#000000" stroke-width="0.46696" stroke-linejoin="bevel" fill="none" transform="matrix(1.00176 0 0 1 322 110.001)"/><path d="M63.4747 70.3046 472.738 70.3046" stroke="#000000" stroke-width="0.46696" stroke-linejoin="bevel" fill="none" transform="matrix(1.00176 0 0 1 322 110.001)"/><path d="M63.4747 74.5471 472.738 74.5471" stroke="#000000" stroke-width="0.46696" stroke-linejoin="bevel" fill="none" transform="matrix(1.00176 0 0 1 322 110.001)"/><path d="M63.4747 78.7896 472.738 78.7896" stroke="#000000" stroke-width="0.46696" stroke-linejoin="bevel" fill="none" transform="matrix(1.00176 0 0 1 322 110.001)"/><path d="M63.4747 83.0321 472.738 83.0321" stroke="#000000" stroke-width="0.46696" stroke-linejoin="bevel" fill="none" transform="matrix(1.00176 0 0 1 322 110.001)"/><path d="M63.4747 110.609 472.738 110.609" stroke="#000000" stroke-width="0.46696" stroke-linejoin="bevel" fill="none" transform="matrix(1.00176 0 0 1 322 110.001)"/><path d="M63.4747 114.851 472.738 114.851" stroke="#000000" stroke-width="0.46696" stroke-linejoin="bevel" fill="none" transform="matrix(1.00176 0 0 1 322 110.001)"/><path d="M63.4747 119.093 472.738 119.093" stroke="#000000" stroke-width="0.46696" stroke-linejoin="bevel" fill="none" transform="matrix(1.00176 0 0 1 322 110.001)"/><path d="M63.4747 123.336 472.738 123.336" stroke="#000000" stroke-width="0.46696" stroke-linejoin="bevel" fill="none" transform="matrix(1.00176 0 0 1 322 110.001)"/><path d="M63.4747 127.578 472.738 127.578" stroke="#000000" stroke-width="0.46696" stroke-linejoin="bevel" fill="none" transform="matrix(1.00176 0 0 1 322 110.001)"/><path d="M234.486 84.0927C236.242 85.1958 241.516 85.1958 243.272 84.0927 241.516 86.3838 236.242 86.3838 234.486 84.0927" stroke="#000000" stroke-width="0.297623" stroke-linecap="round" stroke-linejoin="round" fill-rule="evenodd" transform="matrix(1.00176 0 0 1 322 110.001)"/><path d="M438.689 83.368C441.039 84.5606 448.091 84.5606 450.441 83.368 448.091 85.7485 441.039 85.7485 438.689 83.368" stroke="#000000" stroke-width="0.297623" stroke-linecap="round" stroke-linejoin="round" fill-rule="evenodd" transform="matrix(1.00176 0 0 1 322 110.001)"/><path d="M63.8566 110.375 63.8566 127.812" stroke="#000000" stroke-width="0.762872" stroke-linejoin="bevel" fill="none" transform="matrix(1.00176 0 0 1 322 110.001)"/><path d="M192.196 110.375 192.196 127.812" stroke="#000000" stroke-width="0.762872" stroke-linejoin="bevel" fill="none" transform="matrix(1.00176 0 0 1 322 110.001)"/><path d="M285.653 110.375 285.653 127.812" stroke="#000000" stroke-width="0.762872" stroke-linejoin="bevel" fill="none" transform="matrix(1.00176 0 0 1 322 110.001)"/><path d="M388.936 110.375 388.936 127.812" stroke="#000000" stroke-width="0.762872" stroke-linejoin="bevel" fill="none" transform="matrix(1.00176 0 0 1 322 110.001)"/><path d="M472.356 110.375 472.356 127.812" stroke="#000000" stroke-width="0.762872" stroke-linejoin="bevel" fill="none" transform="matrix(1.00176 0 0 1 322 110.001)"/><path d="M63.8566 65.8286 63.8566 110.609" stroke="#000000" stroke-width="0.762872" stroke-linejoin="bevel" fill="none" transform="matrix(1.00176 0 0 1 322 110.001)"/><path d="M192.196 65.8286 192.196 110.609" stroke="#000000" stroke-width="0.762872" stroke-linejoin="bevel" fill="none" transform="matrix(1.00176 0 0 1 322 110.001)"/><path d="M285.653 65.8286 285.653 110.609" stroke="#000000" stroke-width="0.762872" stroke-linejoin="bevel" fill="none" transform="matrix(1.00176 0 0 1 322 110.001)"/><path d="M388.936 65.8286 388.936 110.609" stroke="#000000" stroke-width="0.762872" stroke-linejoin="bevel" fill="none" transform="matrix(1.00176 0 0 1 322 110.001)"/><path d="M472.356 65.8286 472.356 110.609" stroke="#000000" stroke-width="0.762872" stroke-linejoin="bevel" fill="none" transform="matrix(1.00176 0 0 1 322 110.001)"/><path d="M3.40993-1.3417C3.30916-2.00194 2.90083-2.63036 2.03641-2.63036 1.1879-2.63036 0.694712-2.10536 0.609862-2.00194L0.678802-7.45093C0.678802-7.58614 0.578043-7.68691 0.440161-7.68691L0.238642-7.68691C0.10076-7.68691 0-7.58614 0-7.45093L0.0848503 2.74968C0.0848503 2.88491 0.18561 2.98568 0.323492 2.98568 0.355311 2.98568 0.424252 2.96976 0.458723 2.95386 0.525011 2.91938 1.62807 2.37581 2.54551 1.3417 3.18985 0.609862 3.4444-0.220081 3.4444-0.917444 3.4444-1.06858 3.42848-1.20381 3.40993-1.3417M2.24057-0.678802C2.24057-0.424252 2.17164 0.355311 1.74739 1.00229 1.45836 1.44246 0.882974 1.90117 0.559483 2.15572L0.609862-1.15343C0.644333-1.30723 0.898884-1.79777 1.57769-1.79777 2.19021-1.79777 2.24057-1.22238 2.24057-0.864413L2.24057-0.678802" transform="matrix(1.00176 0 0 1 612.644 229.094)"/><path d="M3.40993-1.3417C3.30916-2.00194 2.90083-2.63036 2.03641-2.63036 1.1879-2.63036 0.694712-2.10536 0.609862-2.00194L0.678802-7.45093C0.678802-7.58614 0.578043-7.68691 0.440161-7.68691L0.238642-7.68691C0.10076-7.68691 0-7.58614 0-7.45093L0.0848503 2.74968C0.0848503 2.88491 0.18561 2.98568 0.323492 2.98568 0.355311 2.98568 0.424252 2.96976 0.458723 2.95386 0.525011 2.91938 1.62807 2.37581 2.54551 1.3417 3.18985 0.609862 3.4444-0.220081 3.4444-0.917444 3.4444-1.06858 3.42848-1.20381 3.40993-1.3417M2.24057-0.678802C2.24057-0.424252 2.17164 0.355311 1.74739 1.00229 1.45836 1.44246 0.882974 1.90117 0.559483 2.15572L0.609862-1.15343C0.644333-1.30723 0.898884-1.79777 1.57769-1.79777 2.19021-1.79777 2.24057-1.22238 2.24057-0.864413L2.24057-0.678802" transform="matrix(1.00176 0 0 1 648.192 186.669)"/><path d="M2.81598-3.105C2.78416-3.13946 2.73113-3.15538 2.68074-3.15538 2.66483-3.15538 2.63036-3.13946 2.61446-3.13946L0.474632-2.54551 0.474632-5.51527 0-5.51527 0 2.88491C0 3.02014 0.10076 3.105 0.238642 3.105L0.304932 3.105 2.44476 2.51104 2.44476 5.4808 2.90083 5.4808 2.90083-2.91938C2.90083-2.98568 2.86901-3.07053 2.81598-3.105M2.44476 1.10305 0.474632 1.64663 0.474632-1.13753 2.44476-1.69701 2.44476 1.10305" transform="matrix(1.00176 0 0 1 715.702 186.669)"/><path d="M198.093 87.2746 206.577 87.2746" stroke="#000000" stroke-width="0.679058" stroke-linejoin="bevel" fill="none" transform="matrix(1.00176 0 0 1 322 110.001)"/><path d="M111.862 122.793 111.862 109.017" stroke="#000000" stroke-width="0.46696" stroke-linejoin="bevel" fill="none" transform="matrix(1.00176 0 0 1 322 110.001)"/><path d="M153.348 122.793 153.348 109.017" stroke="#000000" stroke-width="0.46696" stroke-linejoin="bevel" fill="none" transform="matrix(1.00176 0 0 1 322 110.001)"/><path d="M204.858 124.914 204.858 110.609" stroke="#000000" stroke-width="0.46696" stroke-linejoin="bevel" fill="none" transform="matrix(1.00176 0 0 1 322 110.001)"/><path d="M241.575 119.664 241.575 132.351" stroke="#000000" stroke-width="0.46696" stroke-linejoin="bevel" fill="none" transform="matrix(1.00176 0 0 1 322 110.001)"/><path d="M402.252 120.672 402.252 107.427" stroke="#000000" stroke-width="0.46696" stroke-linejoin="bevel" fill="none" transform="matrix(1.00176 0 0 1 322 110.001)"/><path d="M453.792 120.672 453.792 107.427" stroke="#000000" stroke-width="0.46696" stroke-linejoin="bevel" fill="none" transform="matrix(1.00176 0 0 1 322 110.001)"/><path d="M111.862 84.6103 111.862 69.2439" stroke="#000000" stroke-width="0.46696" stroke-linejoin="bevel" fill="none" transform="matrix(1.00176 0 0 1 322 110.001)"/><path d="M122.233 82.489 122.233 68.5368" stroke="#000000" stroke-width="0.46696" stroke-linejoin="bevel" fill="none" transform="matrix(1.00176 0 0 1 322 110.001)"/><path d="M132.605 82.489 132.605 67.8297" stroke="#000000" stroke-width="0.46696" stroke-linejoin="bevel" fill="none" transform="matrix(1.00176 0 0 1 322 110.001)"/><path d="M142.976 80.3678 142.976 67.1226" stroke="#000000" stroke-width="0.46696" stroke-linejoin="bevel" fill="none" transform="matrix(1.00176 0 0 1 322 110.001)"/><path d="M153.348 80.3678 153.348 66.0619" stroke="#000000" stroke-width="0.46696" stroke-linejoin="bevel" fill="none" transform="matrix(1.00176 0 0 1 322 110.001)"/><path d="M180.313 80.3678 180.313 66.0619" stroke="#000000" stroke-width="0.46696" stroke-linejoin="bevel" fill="none" transform="matrix(1.00176 0 0 1 322 110.001)"/><path d="M204.858 86.7315 204.858 67.1226" stroke="#000000" stroke-width="0.46696" stroke-linejoin="bevel" fill="none" transform="matrix(1.00176 0 0 1 322 110.001)"/><path d="M215.299 78.2465 215.299 67.1226" stroke="#000000" stroke-width="0.46696" stroke-linejoin="bevel" fill="none" transform="matrix(1.00176 0 0 1 322 110.001)"/><path d="M225.742 82.489 225.742 67.1226" stroke="#000000" stroke-width="0.46696" stroke-linejoin="bevel" fill="none" transform="matrix(1.00176 0 0 1 322 110.001)"/><path d="M236.182 80.3678 236.182 67.1226" stroke="#000000" stroke-width="0.46696" stroke-linejoin="bevel" fill="none" transform="matrix(1.00176 0 0 1 322 110.001)"/><path d="M246.623 80.3678 246.623 66.0619" stroke="#000000" stroke-width="0.46696" stroke-linejoin="bevel" fill="none" transform="matrix(1.00176 0 0 1 322 110.001)"/><path d="M273.77 80.3678 273.77 66.0619" stroke="#000000" stroke-width="0.46696" stroke-linejoin="bevel" fill="none" transform="matrix(1.00176 0 0 1 322 110.001)"/><path d="M295.279 72.996 295.279 86.2139" stroke="#000000" stroke-width="0.46696" stroke-linejoin="bevel" fill="none" transform="matrix(1.00176 0 0 1 322 110.001)"/><path d="M306.917 75.1172 306.917 86.9178" stroke="#000000" stroke-width="0.46696" stroke-linejoin="bevel" fill="none" transform="matrix(1.00176 0 0 1 322 110.001)"/><path d="M318.555 75.1172 318.555 87.6216" stroke="#000000" stroke-width="0.46696" stroke-linejoin="bevel" fill="none" transform="matrix(1.00176 0 0 1 322 110.001)"/><path d="M330.356 77.2385 330.356 88.3352" stroke="#000000" stroke-width="0.46696" stroke-linejoin="bevel" fill="none" transform="matrix(1.00176 0 0 1 322 110.001)"/><path d="M347.042 76.1254 347.042 65.0014" stroke="#000000" stroke-width="0.46696" stroke-linejoin="bevel" fill="none" transform="matrix(1.00176 0 0 1 322 110.001)"/><path d="M358.681 80.3678 358.681 65.355" stroke="#000000" stroke-width="0.46696" stroke-linejoin="bevel" fill="none" transform="matrix(1.00176 0 0 1 322 110.001)"/><path d="M370.319 80.3678 370.319 65.7086" stroke="#000000" stroke-width="0.46696" stroke-linejoin="bevel" fill="none" transform="matrix(1.00176 0 0 1 322 110.001)"/><path d="M381.958 78.2465 381.958 66.0619" stroke="#000000" stroke-width="0.46696" stroke-linejoin="bevel" fill="none" transform="matrix(1.00176 0 0 1 322 110.001)"/><path d="M397.205 77.2385 397.205 90.4566" stroke="#000000" stroke-width="0.46696" stroke-linejoin="bevel" fill="none" transform="matrix(1.00176 0 0 1 322 110.001)"/><path d="M413.552 77.2385 413.552 90.4566" stroke="#000000" stroke-width="0.46696" stroke-linejoin="bevel" fill="none" transform="matrix(1.00176 0 0 1 322 110.001)"/><path d="M440.386 78.2465 440.386 64.471" stroke="#000000" stroke-width="0.46696" stroke-linejoin="bevel" fill="none" transform="matrix(1.00176 0 0 1 322 110.001)"/><path d="M453.792 78.2465 453.792 64.471" stroke="#000000" stroke-width="0.46696" stroke-linejoin="bevel" fill="none" transform="matrix(1.00176 0 0 1 322 110.001)"/><path d="M5.34557-1.38147C5.04063-1.94095 4.39632-2.24589 3.6141-2.24589 3.03871-2.24589 2.41027-2.07619 1.79777-1.75535 0.678802-1.16139 0-0.159094 0 0.705318 0 0.94396 0.0503799 1.1826 0.169701 1.40268 0.474632 1.96481 1.11896 2.25384 1.90117 2.25384 2.47658 2.25384 3.105 2.10005 3.71751 1.77921 4.83647 1.1826 5.51527 0.180307 5.51527-0.686758 5.51527-0.922747 5.46489-1.16139 5.34557-1.38147M4.61638-0.228035C4.32737 0.0609862 3.74933 0.416298 3.13946 0.75835 2.52961 1.09775 1.91709 1.3523 1.5114 1.43715 1.42655 1.45571 1.3417 1.47162 1.25685 1.47162 0.983734 1.47162 0.779562 1.37086 0.662893 1.14813 0.609862 1.06328 0.578043 0.962522 0.578043 0.859109 0.578043 0.673499 0.694712 0.450767 0.882974 0.265157 1.17199-0.0238642 1.73147-0.379176 2.34134-0.718577 2.95386-1.05798 3.56371-1.31253 3.97206-1.39738 4.05691-1.41594 4.14176-1.43185 4.22661-1.43185 4.49707-1.43185 4.71715-1.33109 4.83647-1.11101 4.88685-1.02616 4.90542-0.922747 4.90542-0.821987 4.90542-0.633727 4.802-0.432207 4.61638-0.228035" transform="matrix(1.00176 0 0 1 428.769 233.336)"/><path d="M5.34557-1.38147C5.04063-1.94095 4.39632-2.24589 3.6141-2.24589 3.03871-2.24589 2.41027-2.07619 1.79777-1.75535 0.678802-1.16139 0-0.159094 0 0.705318 0 0.94396 0.0503799 1.1826 0.169701 1.40268 0.474632 1.96481 1.11896 2.25384 1.90117 2.25384 2.47658 2.25384 3.105 2.10005 3.71751 1.77921 4.83647 1.1826 5.51527 0.180307 5.51527-0.686758 5.51527-0.922747 5.46489-1.16139 5.34557-1.38147M4.61638-0.228035C4.32737 0.0609862 3.74933 0.416298 3.13946 0.75835 2.52961 1.09775 1.91709 1.3523 1.5114 1.43715 1.42655 1.45571 1.3417 1.47162 1.25685 1.47162 0.983734 1.47162 0.779562 1.37086 0.662893 1.14813 0.609862 1.06328 0.578043 0.962522 0.578043 0.859109 0.578043 0.673499 0.694712 0.450767 0.882974 0.265157 1.17199-0.0238642 1.73147-0.379176 2.34134-0.718577 2.95386-1.05798 3.56371-1.31253 3.97206-1.39738 4.05691-1.41594 4.14176-1.43185 4.22661-1.43185 4.49707-1.43185 4.71715-1.33109 4.83647-1.11101 4.88685-1.02616 4.90542-0.922747 4.90542-0.821987 4.90542-0.633727 4.802-0.432207 4.61638-0.228035" transform="matrix(1.00176 0 0 1 470.328 233.336)"/><path d="M5.34557-1.38147C5.04063-1.94095 4.39632-2.24589 3.6141-2.24589 3.03871-2.24589 2.41027-2.07619 1.79777-1.75535 0.678802-1.16139 0-0.159094 0 0.705318 0 0.94396 0.0503799 1.1826 0.169701 1.40268 0.474632 1.96481 1.11896 2.25384 1.90117 2.25384 2.47658 2.25384 3.105 2.10005 3.71751 1.77921 4.83647 1.1826 5.51527 0.180307 5.51527-0.686758 5.51527-0.922747 5.46489-1.16139 5.34557-1.38147M4.61638-0.228035C4.32737 0.0609862 3.74933 0.416298 3.13946 0.75835 2.52961 1.09775 1.91709 1.3523 1.5114 1.43715 1.42655 1.45571 1.3417 1.47162 1.25685 1.47162 0.983734 1.47162 0.779562 1.37086 0.662893 1.14813 0.609862 1.06328 0.578043 0.962522 0.578043 0.859109 0.578043 0.673499 0.694712 0.450767 0.882974 0.265157 1.17199-0.0238642 1.73147-0.379176 2.34134-0.718577 2.95386-1.05798 3.56371-1.31253 3.97206-1.39738 4.05691-1.41594 4.14176-1.43185 4.22661-1.43185 4.49707-1.43185 4.71715-1.33109 4.83647-1.11101 4.88685-1.02616 4.90542-0.922747 4.90542-0.821987 4.90542-0.633727 4.802-0.432207 4.61638-0.228035" transform="matrix(1.00176 0 0 1 521.93 235.458)"/><path d="M5.34557-1.38147C5.04063-1.94095 4.39632-2.24589 3.6141-2.24589 3.03871-2.24589 2.41027-2.07619 1.79777-1.75535 0.678802-1.16139 0-0.159094 0 0.705318 0 0.94396 0.0503799 1.1826 0.169701 1.40268 0.474632 1.96481 1.11896 2.25384 1.90117 2.25384 2.47658 2.25384 3.105 2.10005 3.71751 1.77921 4.83647 1.1826 5.51527 0.180307 5.51527-0.686758 5.51527-0.922747 5.46489-1.16139 5.34557-1.38147M4.61638-0.228035C4.32737 0.0609862 3.74933 0.416298 3.13946 0.75835 2.52961 1.09775 1.91709 1.3523 1.5114 1.43715 1.42655 1.45571 1.3417 1.47162 1.25685 1.47162 0.983734 1.47162 0.779562 1.37086 0.662893 1.14813 0.609862 1.06328 0.578043 0.962522 0.578043 0.859109 0.578043 0.673499 0.694712 0.450767 0.882974 0.265157 1.17199-0.0238642 1.73147-0.379176 2.34134-0.718577 2.95386-1.05798 3.56371-1.31253 3.97206-1.39738 4.05691-1.41594 4.14176-1.43185 4.22661-1.43185 4.49707-1.43185 4.71715-1.33109 4.83647-1.11101 4.88685-1.02616 4.90542-0.922747 4.90542-0.821987 4.90542-0.633727 4.802-0.432207 4.61638-0.228035" transform="matrix(1.00176 0 0 1 563.768 229.094)"/><path d="M3.17393-2.30688C0.832594-2.30688 0-1.11896 0-0.0159094 0 1.08714 0.832594 2.27506 3.17393 2.27506 5.51527 2.27506 6.32931 1.08714 6.32931-0.0159094 6.32931-1.11896 5.51527-2.30688 3.17393-2.30688M1.76596-0.763653C1.74739-0.832594 1.74739-0.898884 1.74739-0.967825 1.74739-1.10305 1.78186-1.23829 1.85081-1.3576 1.96748-1.52731 2.17164-1.64663 2.42619-1.69701 2.64628-1.74739 2.76559-1.78186 3.20841-1.78186L3.22431-1.78186C3.90311-1.78186 4.1232-1.15343 4.31146-0.509102L4.36183-0.339401C4.49707 0.10076 4.56602 0.474632 4.56602 0.763653 4.56602 0.967825 4.53153 1.15343 4.4626 1.28866 4.36183 1.47693 4.19213 1.59625 3.90311 1.66254 3.74933 1.69701 3.49478 1.71292 3.49478 1.71292 3.40993 1.71292 3.34363 1.73147 3.2747 1.73147 2.73113 1.73147 2.39173 1.52731 2.15572 0.798124 1.95156 0.169701 1.91709-0.0159094 1.76596-0.763653" transform="matrix(1.00176 0 0 1 617.157 229.094)"/><path d="M5.34557-1.38147C5.04063-1.94095 4.39632-2.24589 3.6141-2.24589 3.03871-2.24589 2.41027-2.07619 1.79777-1.75535 0.678802-1.16139 0-0.159094 0 0.705318 0 0.94396 0.0503799 1.1826 0.169701 1.40268 0.474632 1.96481 1.11896 2.25384 1.90117 2.25384 2.47658 2.25384 3.105 2.10005 3.71751 1.77921 4.83647 1.1826 5.51527 0.180307 5.51527-0.686758 5.51527-0.922747 5.46489-1.16139 5.34557-1.38147M4.61638-0.228035C4.32737 0.0609862 3.74933 0.416298 3.13946 0.75835 2.52961 1.09775 1.91709 1.3523 1.5114 1.43715 1.42655 1.45571 1.3417 1.47162 1.25685 1.47162 0.983734 1.47162 0.779562 1.37086 0.662893 1.14813 0.609862 1.06328 0.578043 0.962522 0.578043 0.859109 0.578043 0.673499 0.694712 0.450767 0.882974 0.265157 1.17199-0.0238642 1.73147-0.379176 2.34134-0.718577 2.95386-1.05798 3.56371-1.31253 3.97206-1.39738 4.05691-1.41594 4.14176-1.43185 4.22661-1.43185 4.49707-1.43185 4.71715-1.33109 4.83647-1.11101 4.88685-1.02616 4.90542-0.922747 4.90542-0.821987 4.90542-0.633727 4.802-0.432207 4.61638-0.228035" transform="matrix(1.00176 0 0 1 719.67 231.215)"/><path d="M5.34557-1.38147C5.04063-1.94095 4.39632-2.24589 3.6141-2.24589 3.03871-2.24589 2.41027-2.07619 1.79777-1.75535 0.678802-1.16139 0-0.159094 0 0.705318 0 0.94396 0.0503799 1.1826 0.169701 1.40268 0.474632 1.96481 1.11896 2.25384 1.90117 2.25384 2.47658 2.25384 3.105 2.10005 3.71751 1.77921 4.83647 1.1826 5.51527 0.180307 5.51527-0.686758 5.51527-0.922747 5.46489-1.16139 5.34557-1.38147M4.61638-0.228035C4.32737 0.0609862 3.74933 0.416298 3.13946 0.75835 2.52961 1.09775 1.91709 1.3523 1.5114 1.43715 1.42655 1.45571 1.3417 1.47162 1.25685 1.47162 0.983734 1.47162 0.779562 1.37086 0.662893 1.14813 0.609862 1.06328 0.578043 0.962522 0.578043 0.859109 0.578043 0.673499 0.694712 0.450767 0.882974 0.265157 1.17199-0.0238642 1.73147-0.379176 2.34134-0.718577 2.95386-1.05798 3.56371-1.31253 3.97206-1.39738 4.05691-1.41594 4.14176-1.43185 4.22661-1.43185 4.49707-1.43185 4.71715-1.33109 4.83647-1.11101 4.88685-1.02616 4.90542-0.922747 4.90542-0.821987 4.90542-0.633727 4.802-0.432207 4.61638-0.228035" transform="matrix(1.00176 0 0 1 771.303 231.215)"/><path d="M5.34557-1.37351C5.04063-1.93566 4.39632-2.24057 3.6141-2.24057 3.03871-2.24057 2.41027-2.07087 1.79777-1.74739 0.678802-1.15343 0-0.153791 0 0.713274 0 0.949263 0.0503799 1.1879 0.169701 1.40799 0.474632 1.96748 1.11896 2.25649 1.90117 2.25649 2.47658 2.25649 3.105 2.10536 3.71751 1.78186 4.83647 1.1879 5.51527 0.18561 5.51527-0.678802 5.51527-0.917444 5.46489-1.15343 5.34557-1.37351" transform="matrix(1.00176 0 0 1 428.769 195.154)"/><path d="M5.34557-1.37351C5.04063-1.93566 4.39632-2.24057 3.6141-2.24057 3.03871-2.24057 2.41027-2.07087 1.79777-1.74739 0.678802-1.15343 0-0.153791 0 0.713274 0 0.949263 0.0503799 1.1879 0.169701 1.40799 0.474632 1.96748 1.11896 2.25649 1.90117 2.25649 2.47658 2.25649 3.105 2.10536 3.71751 1.78186 4.83647 1.1879 5.51527 0.18561 5.51527-0.678802 5.51527-0.917444 5.46489-1.15343 5.34557-1.37351" transform="matrix(1.00176 0 0 1 439.159 193.033)"/><path d="M5.34557-1.37351C5.04063-1.93566 4.39632-2.24057 3.6141-2.24057 3.03871-2.24057 2.41027-2.07087 1.79777-1.74739 0.678802-1.15343 0-0.153791 0 0.713274 0 0.949263 0.0503799 1.1879 0.169701 1.40799 0.474632 1.96748 1.11896 2.25649 1.90117 2.25649 2.47658 2.25649 3.105 2.10536 3.71751 1.78186 4.83647 1.1879 5.51527 0.18561 5.51527-0.678802 5.51527-0.917444 5.46489-1.15343 5.34557-1.37351" transform="matrix(1.00176 0 0 1 449.549 193.033)"/><path d="M5.34557-1.37351C5.04063-1.93566 4.39632-2.24057 3.6141-2.24057 3.03871-2.24057 2.41027-2.07087 1.79777-1.74739 0.678802-1.15343 0-0.153791 0 0.713274 0 0.949263 0.0503799 1.1879 0.169701 1.40799 0.474632 1.96748 1.11896 2.25649 1.90117 2.25649 2.47658 2.25649 3.105 2.10536 3.71751 1.78186 4.83647 1.1879 5.51527 0.18561 5.51527-0.678802 5.51527-0.917444 5.46489-1.15343 5.34557-1.37351" transform="matrix(1.00176 0 0 1 459.938 190.911)"/><path d="M5.34557-1.37351C5.04063-1.93566 4.39632-2.24057 3.6141-2.24057 3.03871-2.24057 2.41027-2.07087 1.79777-1.74739 0.678802-1.15343 0-0.153791 0 0.713274 0 0.949263 0.0503799 1.1879 0.169701 1.40799 0.474632 1.96748 1.11896 2.25649 1.90117 2.25649 2.47658 2.25649 3.105 2.10536 3.71751 1.78186 4.83647 1.1879 5.51527 0.18561 5.51527-0.678802 5.51527-0.917444 5.46489-1.15343 5.34557-1.37351" transform="matrix(1.00176 0 0 1 470.328 190.911)"/><path d="M5.34557-1.37351C5.04063-1.93566 4.39632-2.24057 3.6141-2.24057 3.03871-2.24057 2.41027-2.07087 1.79777-1.74739 0.678802-1.15343 0-0.153791 0 0.713274 0 0.949263 0.0503799 1.1879 0.169701 1.40799 0.474632 1.96748 1.11896 2.25649 1.90117 2.25649 2.47658 2.25649 3.105 2.10536 3.71751 1.78186 4.83647 1.1879 5.51527 0.18561 5.51527-0.678802 5.51527-0.917444 5.46489-1.15343 5.34557-1.37351" transform="matrix(1.00176 0 0 1 497.342 190.911)"/><path d="M5.34557-1.37351C5.04063-1.93566 4.39632-2.24057 3.6141-2.24057 3.03871-2.24057 2.41027-2.07087 1.79777-1.74739 0.678802-1.15343 0-0.153791 0 0.713274 0 0.949263 0.0503799 1.1879 0.169701 1.40799 0.474632 1.96748 1.11896 2.25649 1.90117 2.25649 2.47658 2.25649 3.105 2.10536 3.71751 1.78186 4.83647 1.1879 5.51527 0.18561 5.51527-0.678802 5.51527-0.917444 5.46489-1.15343 5.34557-1.37351" transform="matrix(1.00176 0 0 1 521.93 197.275)"/><path d="M5.34557-1.37351C5.04063-1.93566 4.39632-2.24057 3.6141-2.24057 3.03871-2.24057 2.41027-2.07087 1.79777-1.74739 0.678802-1.15343 0-0.153791 0 0.713274 0 0.949263 0.0503799 1.1879 0.169701 1.40799 0.474632 1.96748 1.11896 2.25649 1.90117 2.25649 2.47658 2.25649 3.105 2.10536 3.71751 1.78186 4.83647 1.1879 5.51527 0.18561 5.51527-0.678802 5.51527-0.917444 5.46489-1.15343 5.34557-1.37351" transform="matrix(1.00176 0 0 1 532.389 188.79)"/><path d="M5.34557-1.37351C5.04063-1.93566 4.39632-2.24057 3.6141-2.24057 3.03871-2.24057 2.41027-2.07087 1.79777-1.74739 0.678802-1.15343 0-0.153791 0 0.713274 0 0.949263 0.0503799 1.1879 0.169701 1.40799 0.474632 1.96748 1.11896 2.25649 1.90117 2.25649 2.47658 2.25649 3.105 2.10536 3.71751 1.78186 4.83647 1.1879 5.51527 0.18561 5.51527-0.678802 5.51527-0.917444 5.46489-1.15343 5.34557-1.37351" transform="matrix(1.00176 0 0 1 542.848 193.033)"/><path d="M5.34557-1.37351C5.04063-1.93566 4.39632-2.24057 3.6141-2.24057 3.03871-2.24057 2.41027-2.07087 1.79777-1.74739 0.678802-1.15343 0-0.153791 0 0.713274 0 0.949263 0.0503799 1.1879 0.169701 1.40799 0.474632 1.96748 1.11896 2.25649 1.90117 2.25649 2.47658 2.25649 3.105 2.10536 3.71751 1.78186 4.83647 1.1879 5.51527 0.18561 5.51527-0.678802 5.51527-0.917444 5.46489-1.15343 5.34557-1.37351" transform="matrix(1.00176 0 0 1 553.309 190.911)"/><path d="M5.34557-1.37351C5.04063-1.93566 4.39632-2.24057 3.6141-2.24057 3.03871-2.24057 2.41027-2.07087 1.79777-1.74739 0.678802-1.15343 0-0.153791 0 0.713274 0 0.949263 0.0503799 1.1879 0.169701 1.40799 0.474632 1.96748 1.11896 2.25649 1.90117 2.25649 2.47658 2.25649 3.105 2.10536 3.71751 1.78186 4.83647 1.1879 5.51527 0.18561 5.51527-0.678802 5.51527-0.917444 5.46489-1.15343 5.34557-1.37351" transform="matrix(1.00176 0 0 1 563.768 190.911)"/><path d="M5.34557-1.37351C5.04063-1.93566 4.39632-2.24057 3.6141-2.24057 3.03871-2.24057 2.41027-2.07087 1.79777-1.74739 0.678802-1.15343 0-0.153791 0 0.713274 0 0.949263 0.0503799 1.1879 0.169701 1.40799 0.474632 1.96748 1.11896 2.25649 1.90117 2.25649 2.47658 2.25649 3.105 2.10536 3.71751 1.78186 4.83647 1.1879 5.51527 0.18561 5.51527-0.678802 5.51527-0.917444 5.46489-1.15343 5.34557-1.37351" transform="matrix(1.00176 0 0 1 590.962 190.911)"/><path d="M5.34557-1.37351C5.04063-1.93566 4.39632-2.24057 3.6141-2.24057 3.03871-2.24057 2.41027-2.07087 1.79777-1.74739 0.678802-1.15343 0-0.153791 0 0.713274 0 0.949263 0.0503799 1.1879 0.169701 1.40799 0.474632 1.96748 1.11896 2.25649 1.90117 2.25649 2.47658 2.25649 3.105 2.10536 3.71751 1.78186 4.83647 1.1879 5.51527 0.18561 5.51527-0.678802 5.51527-0.917444 5.46489-1.15343 5.34557-1.37351" transform="matrix(1.00176 0 0 1 617.565 182.426)"/><path d="M5.34557-1.37351C5.04063-1.93566 4.39632-2.24057 3.6141-2.24057 3.03871-2.24057 2.41027-2.07087 1.79777-1.74739 0.678802-1.15343 0-0.153791 0 0.713274 0 0.949263 0.0503799 1.1879 0.169701 1.40799 0.474632 1.96748 1.11896 2.25649 1.90117 2.25649 2.47658 2.25649 3.105 2.10536 3.71751 1.78186 4.83647 1.1879 5.51527 0.18561 5.51527-0.678802 5.51527-0.917444 5.46489-1.15343 5.34557-1.37351" transform="matrix(1.00176 0 0 1 629.225 184.548)"/><path d="M5.34557-1.37351C5.04063-1.93566 4.39632-2.24057 3.6141-2.24057 3.03871-2.24057 2.41027-2.07087 1.79777-1.74739 0.678802-1.15343 0-0.153791 0 0.713274 0 0.949263 0.0503799 1.1879 0.169701 1.40799 0.474632 1.96748 1.11896 2.25649 1.90117 2.25649 2.47658 2.25649 3.105 2.10536 3.71751 1.78186 4.83647 1.1879 5.51527 0.18561 5.51527-0.678802 5.51527-0.917444 5.46489-1.15343 5.34557-1.37351" transform="matrix(1.00176 0 0 1 640.884 184.548)"/><path d="M5.34557-1.37351C5.04063-1.93566 4.39632-2.24057 3.6141-2.24057 3.03871-2.24057 2.41027-2.07087 1.79777-1.74739 0.678802-1.15343 0-0.153791 0 0.713274 0 0.949263 0.0503799 1.1879 0.169701 1.40799 0.474632 1.96748 1.11896 2.25649 1.90117 2.25649 2.47658 2.25649 3.105 2.10536 3.71751 1.78186 4.83647 1.1879 5.51527 0.18561 5.51527-0.678802 5.51527-0.917444 5.46489-1.15343 5.34557-1.37351" transform="matrix(1.00176 0 0 1 652.705 186.669)"/><path d="M5.34557-1.37351C5.04063-1.93566 4.39632-2.24057 3.6141-2.24057 3.03871-2.24057 2.41027-2.07087 1.79777-1.74739 0.678802-1.15343 0-0.153791 0 0.713274 0 0.949263 0.0503799 1.1879 0.169701 1.40799 0.474632 1.96748 1.11896 2.25649 1.90117 2.25649 2.47658 2.25649 3.105 2.10536 3.71751 1.78186 4.83647 1.1879 5.51527 0.18561 5.51527-0.678802 5.51527-0.917444 5.46489-1.15343 5.34557-1.37351" transform="matrix(1.00176 0 0 1 664.364 186.669)"/><path d="M5.34557-1.37351C5.04063-1.93566 4.39632-2.24057 3.6141-2.24057 3.03871-2.24057 2.41027-2.07087 1.79777-1.74739 0.678802-1.15343 0-0.153791 0 0.713274 0 0.949263 0.0503799 1.1879 0.169701 1.40799 0.474632 1.96748 1.11896 2.25649 1.90117 2.25649 2.47658 2.25649 3.105 2.10536 3.71751 1.78186 4.83647 1.1879 5.51527 0.18561 5.51527-0.678802 5.51527-0.917444 5.46489-1.15343 5.34557-1.37351" transform="matrix(1.00176 0 0 1 676.023 190.911)"/><path d="M5.34557-1.37351C5.04063-1.93566 4.39632-2.24057 3.6141-2.24057 3.03871-2.24057 2.41027-2.07087 1.79777-1.74739 0.678802-1.15343 0-0.153791 0 0.713274 0 0.949263 0.0503799 1.1879 0.169701 1.40799 0.474632 1.96748 1.11896 2.25649 1.90117 2.25649 2.47658 2.25649 3.105 2.10536 3.71751 1.78186 4.83647 1.1879 5.51527 0.18561 5.51527-0.678802 5.51527-0.917444 5.46489-1.15343 5.34557-1.37351" transform="matrix(1.00176 0 0 1 687.683 190.911)"/><path d="M5.34557-1.37351C5.04063-1.93566 4.39632-2.24057 3.6141-2.24057 3.03871-2.24057 2.41027-2.07087 1.79777-1.74739 0.678802-1.15343 0-0.153791 0 0.713274 0 0.949263 0.0503799 1.1879 0.169701 1.40799 0.474632 1.96748 1.11896 2.25649 1.90117 2.25649 2.47658 2.25649 3.105 2.10536 3.71751 1.78186 4.83647 1.1879 5.51527 0.18561 5.51527-0.678802 5.51527-0.917444 5.46489-1.15343 5.34557-1.37351" transform="matrix(1.00176 0 0 1 699.342 188.79)"/><path d="M5.34557-1.37351C5.04063-1.93566 4.39632-2.24057 3.6141-2.24057 3.03871-2.24057 2.41027-2.07087 1.79777-1.74739 0.678802-1.15343 0-0.153791 0 0.713274 0 0.949263 0.0503799 1.1879 0.169701 1.40799 0.474632 1.96748 1.11896 2.25649 1.90117 2.25649 2.47658 2.25649 3.105 2.10536 3.71751 1.78186 4.83647 1.1879 5.51527 0.18561 5.51527-0.678802 5.51527-0.917444 5.46489-1.15343 5.34557-1.37351" transform="matrix(1.00176 0 0 1 719.67 186.669)"/><path d="M5.34557-1.37351C5.04063-1.93566 4.39632-2.24057 3.6141-2.24057 3.03871-2.24057 2.41027-2.07087 1.79777-1.74739 0.678802-1.15343 0-0.153791 0 0.713274 0 0.949263 0.0503799 1.1879 0.169701 1.40799 0.474632 1.96748 1.11896 2.25649 1.90117 2.25649 2.47658 2.25649 3.105 2.10536 3.71751 1.78186 4.83647 1.1879 5.51527 0.18561 5.51527-0.678802 5.51527-0.917444 5.46489-1.15343 5.34557-1.37351" transform="matrix(1.00176 0 0 1 736.048 186.669)"/><path d="M5.34557-1.37351C5.04063-1.93566 4.39632-2.24057 3.6141-2.24057 3.03871-2.24057 2.41027-2.07087 1.79777-1.74739 0.678802-1.15343 0-0.153791 0 0.713274 0 0.949263 0.0503799 1.1879 0.169701 1.40799 0.474632 1.96748 1.11896 2.25649 1.90117 2.25649 2.47658 2.25649 3.105 2.10536 3.71751 1.78186 4.83647 1.1879 5.51527 0.18561 5.51527-0.678802 5.51527-0.917444 5.46489-1.15343 5.34557-1.37351" transform="matrix(1.00176 0 0 1 757.873 188.79)"/><path d="M5.34557-1.38147C5.04063-1.94095 4.39632-2.24589 3.6141-2.24589 3.03871-2.24589 2.41027-2.07619 1.79777-1.75535 0.678802-1.16139 0-0.159094 0 0.705318 0 0.94396 0.0503799 1.1826 0.169701 1.40268 0.474632 1.96481 1.11896 2.25384 1.90117 2.25384 2.47658 2.25384 3.105 2.10005 3.71751 1.77921 4.83647 1.1826 5.51527 0.180307 5.51527-0.686758 5.51527-0.922747 5.46489-1.16139 5.34557-1.38147M4.61638-0.228035C4.32737 0.0609862 3.74933 0.416298 3.13946 0.75835 2.52961 1.09775 1.91709 1.3523 1.5114 1.43715 1.42655 1.45571 1.3417 1.47162 1.25685 1.47162 0.983734 1.47162 0.779562 1.37086 0.662893 1.14813 0.609862 1.06328 0.578043 0.962522 0.578043 0.859109 0.578043 0.673499 0.694712 0.450767 0.882974 0.265157 1.17199-0.0238642 1.73147-0.379176 2.34134-0.718577 2.95386-1.05798 3.56371-1.31253 3.97206-1.39738 4.05691-1.41594 4.14176-1.43185 4.22661-1.43185 4.49707-1.43185 4.71715-1.33109 4.83647-1.11101 4.88685-1.02616 4.90542-0.922747 4.90542-0.821987 4.90542-0.633727 4.802-0.432207 4.61638-0.228035" transform="matrix(1.00176 0 0 1 771.303 188.79)"/><path d="M4.31146-4.25843C3.02014-4.25843 1.98602-3.51333 1.96748-3.51333 0.983734-2.78416 0.593952-1.91709 0.440161-1.32314 0.355311-1.0182 0.323492-0.713274 0.323492-0.424252 0.323492-0.0159094 0.389782 0.355311 0.543573 0.678802 0.747743 1.13753 1.13753 1.45836 1.64663 1.62807 1.85081 1.69701 2.07087 1.73147 2.29096 1.73147 2.66483 1.73147 3.05461 1.62807 3.37811 1.44246 3.90311 1.15343 4.22661 0.543573 4.22661-0.119321 4.22661-0.713274 3.91903-1.25685 3.40993-1.57769 3.05461-1.81632 2.71521-1.88262 2.42619-1.88262 2.22203-1.88262 2.03641-1.85081 1.88262-1.79777 1.71292-1.73147 1.42655-1.56178 1.28866-1.44246 1.3417-1.76596 1.54322-2.25649 1.73147-2.52961 1.91709-2.80006 2.29096-3.13946 2.57998-3.29326 3.00423-3.52925 3.54781-3.63266 4.14176-3.63266 5.87324-3.63266 6.72174-2.24057 6.72174 0.609862 6.72174 2.19021 6.12779 3.69895 5.61869 4.70123 5.05655 5.82021 4.31146 6.89144 3.64856 7.48539 1.88262 9.09755 0.220081 9.8612 0.204172 9.8612 0.204172 9.8612-0.0503799 10.0123 0.0159094 10.2669 0.0689409 10.4366 0.220081 10.4711 0.323492 10.4711 0.339401 10.4711 0.389782 10.4552 0.408342 10.4552 0.424252 10.4552 2.35991 9.65703 3.90311 8.45057 4.77018 7.82479 5.54974 7.14599 6.22854 6.41416 6.83841 5.75392 7.36608 5.04063 7.79033 4.32737 8.53542 3.05461 8.95967 1.73147 8.95967 0.593952 8.95967-0.814034 8.58845-1.98602 7.89108-2.81598 7.09296-3.76788 5.88914-4.25843 4.31146-4.25843M9.63847-2.10536C9.63847-1.62807 10.0123-1.25685 10.4552-1.25685 10.8953-1.25685 11.2692-1.62807 11.2692-2.10536 11.2692-2.57998 10.8953-2.96976 10.4552-2.96976 10.0123-2.96976 9.63847-2.57998 9.63847-2.10536M9.63847 2.08679C9.63847 2.56143 10.0123 2.95386 10.4552 2.95386 10.8953 2.95386 11.2692 2.56143 11.2692 2.08679 11.2692 1.61216 10.8953 1.22238 10.4552 1.22238 10.0123 1.22238 9.63847 1.61216 9.63847 2.08679" transform="matrix(1.00176 0 0 1 389.752 224.852)"/><path d="M10.7521-1.00495C10.5427-1.92505 10.0945-2.57468 9.96195-2.74968 9.42103-3.47622 8.73958-3.95879 7.94411-4.18948 7.41644-4.33797 6.90734-4.35918 6.49636-4.32737 6.3187-5.34822 6.149-6.34521 5.9952-7.27062 6.92061-8.31798 7.53578-9.30172 7.9229-10.0309 8.51156-11.1472 8.70512-11.9241 8.71572-11.9586 9.00739-12.8442 9.06838-14.1514 8.88011-15.5435 8.71041-16.8242 8.35511-17.9643 7.95472-18.5159 7.78237-18.7572 7.60206-18.8819 7.42705-18.8819 7.22024-18.8819 6.79334-18.6723 6.30278-18.2004 5.91301-17.8293 5.35882-17.169 4.92397-16.1481 4.41486-14.9496 4.37775-13.3401 4.43874-12.1999 4.50238-10.9643 4.69063-9.99908 4.69329-9.99112 4.69594-9.97522 4.74101-9.72067 4.81526-9.28581 4.77814-9.24604 4.73572-9.20891 4.69329-9.16648 4.51828-8.99678 4.31676-8.80587 4.08077-8.56988 3.93493-8.42404 3.77319-8.27026 3.60349-8.10585 2.17164-6.72439 0-4.6323 0-1.38147 0-0.583346 0.153791 0.167049 0.45607 0.848503 0.72388 1.45836 1.11366 2.01519 1.61216 2.50308 2.92469 3.78645 4.72245 4.33001 5.91831 4.30351 6.41945 4.29025 6.86758 4.25047 7.27327 4.17358 7.5835 5.80429 7.77706 6.9975 7.78237 7.90433 7.79033 9.01005 7.50925 9.68619 6.84902 10.1555 6.43537 10.4498 5.95809 10.6116 5.43307 10.6355 4.99291 10.6567 4.60844 10.5771 4.36714 10.5082L4.3645 10.5082C4.3645 10.5082 4.31676 10.4923 4.31411 10.4604 4.31146 10.4286 4.37244 10.4207 4.37244 10.4207L4.37775 10.4207C4.7039 10.3464 5.30846 10.137 5.70883 9.57748 6.01377 9.14793 6.16225 8.36307 5.84938 7.69487 5.66111 7.28917 5.23686 6.78802 4.28229 6.71113 3.85804 6.67667 3.47357 6.76417 3.13417 6.96833 2.82658 7.15129 2.57203 7.42971 2.39437 7.76911 1.97808 8.56723 2.05497 9.54037 2.58529 10.1926 3.08908 10.8078 3.8713 11.2002 4.79404 11.2983 4.93988 11.3143 5.08306 11.3196 5.22625 11.3196 5.9793 11.3196 6.72439 11.1154 7.33159 10.7415 7.95207 10.304 8.31268 9.62786 8.42671 8.6733 8.52216 7.88578 8.45586 6.88083 8.21987 5.50998 8.15888 5.15466 8.06609 4.64026 7.95472 4.00388 8.9305 3.67773 9.63582 3.07053 10.2748 2.07619 10.8343 1.10305 10.9934 0.0662893 10.7521-1.00495M4.94518 3.4444C4.15767 3.23757 3.40462 2.81331 2.76824 2.21671 2.54551 2.0099 2.22732 1.64132 1.97808 1.06593 1.74739 0.527664 1.63337-0.055683 1.64397-0.662893 1.65458-1.46102 1.87731-2.28035 2.30156-3.09174 2.79741-4.03835 3.57167-4.977 4.60048-5.8812 4.84707-6.09862 5.08041-6.31605 5.29785-6.53347 5.42777-5.8096 5.5683-5.01413 5.71679-4.18684 5.06451-3.97206 4.25843-3.43644 3.73077-2.47658 3.12886-1.36291 3.15272-0.424252 3.27734 0.167049 3.43644 0.922747 3.866 1.56178 4.45199 1.91709 4.61109 2.01255 5.3111 2.37316 5.62398 2.27506 5.68762 2.25649 5.73271 2.21671 5.75657 2.16104 5.84407 1.96216 5.66907 1.85345 5.40656 1.6917 5.30314 1.62807 5.18912 1.55647 5.06716 1.46632 4.50238 1.04472 4.25577 0.289022 4.43874-0.45607 4.53684-0.861762 4.75426-1.23033 5.06716-1.51935 5.34822-1.78186 5.69558-1.96748 6.09862-2.07619 6.44598-0.167049 6.79598 1.72618 7.07439 3.14477 7.09561 3.26144 7.11947 3.37545 7.14068 3.48947 6.39824 3.64856 5.66111 3.63266 4.94518 3.4444M6.86758-2.19021C8.62291-2.26975 9.34679-1.0076 9.49794-0.188262 9.57748 0.243945 9.57748 0.996991 9.31497 1.71292 9.11611 2.25118 8.6998 2.94325 7.82744 3.29326 7.81683 3.22166 7.80358 3.14742 7.79033 3.07582 7.52782 1.58564 7.19902-0.281067 6.86758-2.19021M5.62398-14.231C5.92627-15.2041 6.3903-15.7557 6.7297-16.05 7.02667-16.3072 7.30509-16.4291 7.46153-16.4291 7.48539-16.4291 7.50661-16.4238 7.52251-16.4185 7.60206-16.3947 7.69221-16.2992 7.77176-16.1507 8.1642-15.4242 8.03692-14.284 7.80888-13.531 7.53311-12.6135 7.03728-11.6616 5.54444-10.0309 5.51527-10.2192 5.48876-10.3968 5.46224-10.5639 5.25011-11.9692 5.30579-13.2048 5.62398-14.231" transform="matrix(1.00176 0 0 1 389.752 188.79)"/><path d="M3.40993-1.3417C3.30916-2.00194 2.90083-2.63036 2.03641-2.63036 1.1879-2.63036 0.694712-2.10536 0.609862-2.00194L0.678802-7.45093C0.678802-7.58614 0.578043-7.68691 0.440161-7.68691L0.238642-7.68691C0.10076-7.68691 0-7.58614 0-7.45093L0.0848503 2.74968C0.0848503 2.88491 0.18561 2.98568 0.323492 2.98568 0.355311 2.98568 0.424252 2.96976 0.458723 2.95386 0.525011 2.91938 1.62807 2.37581 2.54551 1.3417 3.18985 0.609862 3.4444-0.220081 3.4444-0.917444 3.4444-1.06858 3.42848-1.20381 3.40993-1.3417M2.24057-0.678802C2.24057-0.424252 2.17164 0.355311 1.74739 1.00229 1.45836 1.44246 0.882974 1.90117 0.559483 2.15572L0.609862-1.15343C0.644333-1.30723 0.898884-1.79777 1.57769-1.79777 2.19021-1.79777 2.24057-1.22238 2.24057-0.864413L2.24057-0.678802" transform="matrix(1.00176 0 0 1 405.289 233.336)"/><path d="M3.40993-1.3417C3.30916-2.00194 2.90083-2.63036 2.03641-2.63036 1.1879-2.63036 0.694712-2.10536 0.609862-2.00194L0.678802-7.45093C0.678802-7.58614 0.578043-7.68691 0.440161-7.68691L0.238642-7.68691C0.10076-7.68691 0-7.58614 0-7.45093L0.0848503 2.74968C0.0848503 2.88491 0.18561 2.98568 0.323492 2.98568 0.355311 2.98568 0.424252 2.96976 0.458723 2.95386 0.525011 2.91938 1.62807 2.37581 2.54551 1.3417 3.18985 0.609862 3.4444-0.220081 3.4444-0.917444 3.4444-1.06858 3.42848-1.20381 3.40993-1.3417M2.24057-0.678802C2.24057-0.424252 2.17164 0.355311 1.74739 1.00229 1.45836 1.44246 0.882974 1.90117 0.559483 2.15572L0.609862-1.15343C0.644333-1.30723 0.898884-1.79777 1.57769-1.79777 2.19021-1.79777 2.24057-1.22238 2.24057-0.864413L2.24057-0.678802" transform="matrix(1.00176 0 0 1 405.289 184.548)"/><path d="M0.609862 2.14247 3.52394 2.14247 3.52394 3.40727 2.12922 3.40727C1.99663 3.40727 1.88792 3.51333 1.88792 3.64592L1.88792 3.9694C1.88792 4.10199 1.99663 4.20805 2.12922 4.20805L7.26266 4.20805C7.39523 4.20805 7.50129 4.10199 7.50129 3.9694L7.50129 3.64592C7.50129 3.51333 7.39523 3.40727 7.26266 3.40727L5.74596 3.40727 5.74596 2.14247 7.26266 2.14247C7.39523 2.14247 7.50129 2.03641 7.50129 1.90384L7.50129 1.58034C7.50129 1.44776 7.39523 1.3417 7.26266 1.3417L5.74596 1.3417 5.74596-1.36821C5.74596-1.45836 5.69293-1.54056 5.61337-1.58034L5.40656-1.68375C5.3164-1.72618 5.21034-1.71026 5.13609-1.64397L3.60084-0.233338C3.55311-0.18561 3.52394-0.124624 3.52394-0.055683L3.52394 1.3417 1.56973 1.3417C1.56973 1.3417 3.45765-0.700015 5.46755-3.37545 5.61337-3.57167 5.52852-3.74933 5.4967-3.78115L5.12815-4.15502C5.08306-4.20009 5.02209-4.22661 4.95845-4.22661 4.85768-4.22661 2.55612-4.2213 2.43415-4.22661 2.31217-4.22926 2.22203-4.1232 2.20876-4.01978 2.20876-4.01978 2.11861-2.77089 1.67579-1.38942 1.23563-0.0132579 0.737137 0.832594 0.28637 1.44776 0.28637 1.44776 0.193566 1.61481 0.254551 1.74208 0.312886 1.86935 0.421601 2.05233 0.421601 2.05233 0.421601 2.05233 0.464026 2.14247 0.609862 2.14247" transform="matrix(1.00176 0 0 1 412.756 224.874)"/><path d="M0.609862 2.14247 3.52394 2.14247 3.52394 3.40727 2.12922 3.40727C1.99663 3.40727 1.88792 3.51333 1.88792 3.64592L1.88792 3.9694C1.88792 4.10199 1.99663 4.20805 2.12922 4.20805L7.26266 4.20805C7.39523 4.20805 7.50129 4.10199 7.50129 3.9694L7.50129 3.64592C7.50129 3.51333 7.39523 3.40727 7.26266 3.40727L5.74596 3.40727 5.74596 2.14247 7.26266 2.14247C7.39523 2.14247 7.50129 2.03641 7.50129 1.90384L7.50129 1.58034C7.50129 1.44776 7.39523 1.3417 7.26266 1.3417L5.74596 1.3417 5.74596-1.36821C5.74596-1.45836 5.69293-1.54056 5.61337-1.58034L5.40656-1.68375C5.3164-1.72618 5.21034-1.71026 5.13609-1.64397L3.60084-0.233338C3.55311-0.18561 3.52394-0.124624 3.52394-0.055683L3.52394 1.3417 1.56973 1.3417C1.56973 1.3417 3.45765-0.700015 5.46755-3.37545 5.61337-3.57167 5.52852-3.74933 5.4967-3.78115L5.12815-4.15502C5.08306-4.20009 5.02209-4.22661 4.95845-4.22661 4.85768-4.22661 2.55612-4.2213 2.43415-4.22661 2.31217-4.22926 2.22203-4.1232 2.20876-4.01978 2.20876-4.01978 2.11861-2.77089 1.67579-1.38942 1.23563-0.0132579 0.737137 0.832594 0.28637 1.44776 0.28637 1.44776 0.193566 1.61481 0.254551 1.74208 0.312886 1.86935 0.421601 2.05233 0.421601 2.05233 0.421601 2.05233 0.464026 2.14247 0.609862 2.14247" transform="matrix(1.00176 0 0 1 412.756 233.314)"/><path d="M0.609862 2.14247 3.52394 2.14247 3.52394 3.40727 2.12922 3.40727C1.99663 3.40727 1.88792 3.51333 1.88792 3.64592L1.88792 3.9694C1.88792 4.10199 1.99663 4.20805 2.12922 4.20805L7.26266 4.20805C7.39523 4.20805 7.50129 4.10199 7.50129 3.9694L7.50129 3.64592C7.50129 3.51333 7.39523 3.40727 7.26266 3.40727L5.74596 3.40727 5.74596 2.14247 7.26266 2.14247C7.39523 2.14247 7.50129 2.03641 7.50129 1.90384L7.50129 1.58034C7.50129 1.44776 7.39523 1.3417 7.26266 1.3417L5.74596 1.3417 5.74596-1.36821C5.74596-1.45836 5.69293-1.54056 5.61337-1.58034L5.40656-1.68375C5.3164-1.72618 5.21034-1.71026 5.13609-1.64397L3.60084-0.233338C3.55311-0.18561 3.52394-0.124624 3.52394-0.055683L3.52394 1.3417 1.56973 1.3417C1.56973 1.3417 3.45765-0.700015 5.46755-3.37545 5.61337-3.57167 5.52852-3.74933 5.4967-3.78115L5.12815-4.15502C5.08306-4.20009 5.02209-4.22661 4.95845-4.22661 4.85768-4.22661 2.55612-4.2213 2.43415-4.22661 2.31217-4.22926 2.22203-4.1232 2.20876-4.01978 2.20876-4.01978 2.11861-2.77089 1.67579-1.38942 1.23563-0.0132579 0.737137 0.832594 0.28637 1.44776 0.28637 1.44776 0.193566 1.61481 0.254551 1.74208 0.312886 1.86935 0.421601 2.05233 0.421601 2.05233 0.421601 2.05233 0.464026 2.14247 0.609862 2.14247" transform="matrix(1.00176 0 0 1 412.756 180.328)"/><path d="M0.609862 2.14247 3.52394 2.14247 3.52394 3.40727 2.12922 3.40727C1.99663 3.40727 1.88792 3.51333 1.88792 3.64592L1.88792 3.9694C1.88792 4.10199 1.99663 4.20805 2.12922 4.20805L7.26266 4.20805C7.39523 4.20805 7.50129 4.10199 7.50129 3.9694L7.50129 3.64592C7.50129 3.51333 7.39523 3.40727 7.26266 3.40727L5.74596 3.40727 5.74596 2.14247 7.26266 2.14247C7.39523 2.14247 7.50129 2.03641 7.50129 1.90384L7.50129 1.58034C7.50129 1.44776 7.39523 1.3417 7.26266 1.3417L5.74596 1.3417 5.74596-1.36821C5.74596-1.45836 5.69293-1.54056 5.61337-1.58034L5.40656-1.68375C5.3164-1.72618 5.21034-1.71026 5.13609-1.64397L3.60084-0.233338C3.55311-0.18561 3.52394-0.124624 3.52394-0.055683L3.52394 1.3417 1.56973 1.3417C1.56973 1.3417 3.45765-0.700015 5.46755-3.37545 5.61337-3.57167 5.52852-3.74933 5.4967-3.78115L5.12815-4.15502C5.08306-4.20009 5.02209-4.22661 4.95845-4.22661 4.85768-4.22661 2.55612-4.2213 2.43415-4.22661 2.31217-4.22926 2.22203-4.1232 2.20876-4.01978 2.20876-4.01978 2.11861-2.77089 1.67579-1.38942 1.23563-0.0132579 0.737137 0.832594 0.28637 1.44776 0.28637 1.44776 0.193566 1.61481 0.254551 1.74208 0.312886 1.86935 0.421601 2.05233 0.421601 2.05233 0.421601 2.05233 0.464026 2.14247 0.609862 2.14247" transform="matrix(1.00176 0 0 1 412.756 188.768)"/><path d="M4.53684-3.43909C4.40957-3.48682 4.29555-3.42848 4.23987-3.32508 4.18419-3.22166 3.64327-2.21671 2.89287-1.66254 2.65688-1.49018 2.38642-1.38147 2.12126-1.32579 2.31217-1.53791 2.42619-1.82163 2.42619-2.12922 2.42619-2.80006 1.88262-3.34363 1.21442-3.34363 0.543573-3.34363 0-2.80006 0-2.12922 0-1.62011 0.318189-1.17995 0.766305-1.00229 1.02616-0.880322 1.34965-0.803427 1.69701-0.803427 2.1796-0.803427 2.70725-0.94396 3.16863-1.28336 3.38341-1.4398 3.58493-1.64397 3.76788-1.8561L1.83489 4.18948 2.283 4.33532 4.67208-3.14742C4.71184-3.27205 4.66147-3.38872 4.53684-3.43909" transform="matrix(1.00176 0 0 1 486.952 184.548)"/><path d="M4.53684-3.43909C4.40957-3.48682 4.29555-3.42848 4.23987-3.32508 4.18419-3.22166 3.64327-2.21671 2.89287-1.66254 2.65688-1.49018 2.38642-1.38147 2.12126-1.32579 2.31217-1.53791 2.42619-1.82163 2.42619-2.12922 2.42619-2.80006 1.88262-3.34363 1.21442-3.34363 0.543573-3.34363 0-2.80006 0-2.12922 0-1.62011 0.318189-1.17995 0.766305-1.00229 1.02616-0.880322 1.34965-0.803427 1.69701-0.803427 2.1796-0.803427 2.70725-0.94396 3.16863-1.28336 3.38341-1.4398 3.58493-1.64397 3.76788-1.8561L1.83489 4.18948 2.283 4.33532 4.67208-3.14742C4.71184-3.27205 4.66147-3.38872 4.53684-3.43909" transform="matrix(1.00176 0 0 1 580.502 184.548)"/><path d="M4.53684-3.43909C4.40957-3.48682 4.29555-3.42848 4.23987-3.32508 4.18419-3.22166 3.64327-2.21671 2.89287-1.66254 2.65688-1.49018 2.38642-1.38147 2.12126-1.32579 2.31217-1.53791 2.42619-1.82163 2.42619-2.12922 2.42619-2.80006 1.88262-3.34363 1.21442-3.34363 0.543573-3.34363 0-2.80006 0-2.12922 0-1.62011 0.318189-1.17995 0.766305-1.00229 1.02616-0.880322 1.34965-0.803427 1.69701-0.803427 2.1796-0.803427 2.70725-0.94396 3.16863-1.28336 3.38341-1.4398 3.58493-1.64397 3.76788-1.8561L1.83489 4.18948 2.283 4.33532 4.67208-3.14742C4.71184-3.27205 4.66147-3.38872 4.53684-3.43909" transform="matrix(1.00176 0 0 1 744.442 184.548)"/><path d="M111.629 68.2127 143.209 66.0595 143.209 68.1857 111.629 70.3388 111.629 68.2127" fill-rule="evenodd" transform="matrix(1.00176 0 0 1 322 110.001)"/><path d="M204.626 66.0619 236.415 66.0619 236.415 68.1833 204.626 68.1833 204.626 66.0619" fill-rule="evenodd" transform="matrix(1.00176 0 0 1 322 110.001)"/><path d="M295.045 85.1514 330.59 87.3009 330.59 89.426 295.045 87.2766 295.045 85.1514" fill-rule="evenodd" transform="matrix(1.00176 0 0 1 322 110.001)"/><path d="M346.809 63.9261 382.192 65.0009 382.192 67.1231 346.809 66.0483 346.809 63.9261" fill-rule="evenodd" transform="matrix(1.00176 0 0 1 322 110.001)"/><path d="M396.97 89.3959 413.786 89.3959 413.786 91.5171 396.97 91.5171 396.97 89.3959" fill-rule="evenodd" transform="matrix(1.00176 0 0 1 322 110.001)"/><path d="M413.786 86.2139 408.27 86.2139 408.27 88.3352 413.786 88.3352 413.786 86.2139" fill-rule="evenodd" transform="matrix(1.00176 0 0 1 322 110.001)"/><path d="M0.593952 0.593952C0.578043 0.543573 0.424252-0.0503799 0.424252-0.0848503 0.408342-0.153791 0.304932-0.204172 0.220081-0.204172 0.10076-0.204172 0-0.10076 0 0.0159094L0 2.80006 0 3.85273C0 3.93758 0.0689409 4.00388 0.13523 4.03835 0.848503 4.25843 2.32542 5.19443 3.42848 7.07704 3.73341 7.60206 4.22661 8.31533 4.22661 9.74189 4.22661 10.9643 4.03835 12.2529 3.73341 13.4408 3.68303 13.6291 3.63266 13.7988 3.81826 13.8651 4.00388 13.934 4.07281 13.7988 4.14176 13.6291 4.75162 12.1336 4.90542 10.5718 4.90542 9.5218L4.90542 9.1983C4.82057 7.00811 3.56371 5.39595 3.56371 5.39595 3.6141 5.39595 2.00194 3.30916 1.54322 2.59589 0.917444 1.62807 0.609862 0.662893 0.593952 0.593952" transform="matrix(1.00176 0 0 1 502.398 176.062)"/><path d="M0.593952 0.593952C0.578043 0.543573 0.424252-0.0503799 0.424252-0.0848503 0.408342-0.153791 0.304932-0.204172 0.220081-0.204172 0.10076-0.204172 0-0.10076 0 0.0159094L0 2.80006 0 3.85273C0 3.93758 0.0689409 4.00388 0.13523 4.03835 0.848503 4.25843 2.32542 5.19443 3.42848 7.07704 3.73341 7.60206 4.22661 8.31533 4.22661 9.74189 4.22661 10.9643 4.03835 12.2529 3.73341 13.4408 3.68303 13.6291 3.63266 13.7988 3.81826 13.8651 4.00388 13.934 4.07281 13.7988 4.14176 13.6291 4.75162 12.1336 4.90542 10.5718 4.90542 9.5218L4.90542 9.1983C4.82057 7.00811 3.56371 5.39595 3.56371 5.39595 3.6141 5.39595 2.00194 3.30916 1.54322 2.59589 0.917444 1.62807 0.609862 0.662893 0.593952 0.593952" transform="matrix(1.00176 0 0 1 596.018 176.062)"/><path d="M0.593952 0.593952C0.578043 0.543573 0.424252-0.0503799 0.424252-0.0848503 0.408342-0.153791 0.304932-0.204172 0.220081-0.204172 0.10076-0.204172 0-0.10076 0 0.0159094L0 2.80006 0 3.85273C0 3.93758 0.0689409 4.00388 0.13523 4.03835 0.848503 4.25843 2.32542 5.19443 3.42848 7.07704 3.73341 7.60206 4.22661 8.31533 4.22661 9.74189 4.22661 10.9643 4.03835 12.2529 3.73341 13.4408 3.68303 13.6291 3.63266 13.7988 3.81826 13.8651 4.00388 13.934 4.07281 13.7988 4.14176 13.6291 4.75162 12.1336 4.90542 10.5718 4.90542 9.5218L4.90542 9.1983C4.82057 7.00811 3.56371 5.39595 3.56371 5.39595 3.6141 5.39595 2.00194 3.30916 1.54322 2.59589 0.917444 1.62807 0.609862 0.662893 0.593952 0.593952" transform="matrix(1.00176 0 0 1 762.929 174.472)"/><path d="M0 0C0 0.469329 0.379176 0.848503 0.848503 0.848503 1.31783 0.848503 1.69701 0.469329 1.69701 0 1.69701-0.469329 1.31783-0.848503 0.848503-0.848503 0.379176-0.848503 0-0.469329 0 0" transform="matrix(1.00176 0 0 1 727.319 186.669)"/><path d="M0.567106-30.7583C1.65326-31.9213 3.81595-34.3243 3.81595-38.7554 3.81595-44.3592 1.39374-50.0302 1.39374-53.5002 1.39374-57.2488 3.59487-60.8053 3.66216-60.9014 3.72944-61.0071 3.71983-61.1416 3.65254-61.1898 3.58526-61.2282 3.4603-61.1898 3.3738-61.1032 3.2969-61.0071 0-57.6717 0-52.6639 0-47.2139 2.15308-43.4172 2.15308-36.3428 2.15308-34.9971 1.57636-32.8249 0.0576717-30.9601-0.0480598-30.864-0.0576717-30.691 0.0384478-30.5756L0.0384478-30.566 0.0576717-30.5468C1.57636-28.6821 2.15308-26.5194 2.15308-25.1737 2.15308-18.0897 0-14.293 0-8.8526 0-3.84478 3.2969-0.49021 3.3738-0.403702 3.4603-0.317195 3.56604-0.269135 3.65254-0.317195 3.73905-0.374866 3.73905-0.480598 3.66216-0.605553 3.57565-0.730509 1.39374-4.2581 1.39374-8.00675 1.39374-11.4767 3.81595-17.167 3.81595-22.7611 3.81595-27.2499 1.65326-29.6048 0.567106-30.7583" transform="matrix(1.00176 0 0 1 380.04 237.579)"/></g></g></g></svg>