<svg width="510" height="96" xmlns="http://www.w3.org/2000/svg" xmlns:xlink="http://www.w3.org/1999/xlink" overflow="hidden"><defs><clipPath id="clip0"><rect x="322" y="465" width="510" height="96"/></clipPath><clipPath id="clip1"><rect x="322" y="466" width="510" height="94"/></clipPath><clipPath id="clip2"><rect x="322" y="466" width="510" height="94"/></clipPath></defs><g clip-path="url(#clip0)" transform="translate(-322 -465)"><g clip-path="url(#clip1)"><g clip-path="url(#clip2)"><path d="M63.4698 66.0569 472.701 66.0569" stroke="#000000" stroke-width="0.466924" stroke-linejoin="bevel" fill="none" transform="matrix(1.00184 0 0 1 322 413.01)"/><path d="M63.4698 70.2992 472.701 70.2992" stroke="#000000" stroke-width="0.466924" stroke-linejoin="bevel" fill="none" transform="matrix(1.00184 0 0 1 322 413.01)"/><path d="M63.4698 74.5414 472.701 74.5414" stroke="#000000" stroke-width="0.466924" stroke-linejoin="bevel" fill="none" transform="matrix(1.00184 0 0 1 322 413.01)"/><path d="M63.4698 78.7836 472.701 78.7836" stroke="#000000" stroke-width="0.466924" stroke-linejoin="bevel" fill="none" transform="matrix(1.00184 0 0 1 322 413.01)"/><path d="M63.4698 83.0257 472.701 83.0257" stroke="#000000" stroke-width="0.466924" stroke-linejoin="bevel" fill="none" transform="matrix(1.00184 0 0 1 322 413.01)"/><path d="M63.4698 110.6 472.701 110.6" stroke="#000000" stroke-width="0.466924" stroke-linejoin="bevel" fill="none" transform="matrix(1.00184 0 0 1 322 413.01)"/><path d="M63.4698 114.842 472.701 114.842" stroke="#000000" stroke-width="0.466924" stroke-linejoin="bevel" fill="none" transform="matrix(1.00184 0 0 1 322 413.01)"/><path d="M63.4698 119.084 472.701 119.084" stroke="#000000" stroke-width="0.466924" stroke-linejoin="bevel" fill="none" transform="matrix(1.00184 0 0 1 322 413.01)"/><path d="M63.4698 123.327 472.701 123.327" stroke="#000000" stroke-width="0.466924" stroke-linejoin="bevel" fill="none" transform="matrix(1.00184 0 0 1 322 413.01)"/><path d="M63.4698 127.569 472.701 127.569" stroke="#000000" stroke-width="0.466924" stroke-linejoin="bevel" fill="none" transform="matrix(1.00184 0 0 1 322 413.01)"/><path d="M109.33 113.95C118.342 95.4844 152.809 90.3937 166.775 105.466 152.983 91.5689 118.516 96.6594 109.33 113.95" stroke="#000000" stroke-width="0.2976" stroke-linecap="round" stroke-linejoin="round" fill-rule="evenodd" transform="matrix(1.00184 0 0 1 322 413.01)"/><path d="M200.572 121.63C201.362 113.435 210.179 107.071 218.206 108.903 210.873 108.034 202.058 114.398 200.572 121.63" stroke="#000000" stroke-width="0.2976" stroke-linecap="round" stroke-linejoin="round" fill-rule="evenodd" transform="matrix(1.00184 0 0 1 322 413.01)"/><path d="M227.021 115.266C231.396 105.079 246.175 98.7157 256.581 102.54 246.645 99.8066 231.864 106.17 227.021 115.266" stroke="#000000" stroke-width="0.2976" stroke-linecap="round" stroke-linejoin="round" fill-rule="evenodd" transform="matrix(1.00184 0 0 1 322 413.01)"/><path d="M291.136 110.703C303.073 89.6545 345.796 84.5638 362.343 102.218 345.936 85.7433 303.213 90.8339 291.136 110.703" stroke="#000000" stroke-width="0.2976" stroke-linecap="round" stroke-linejoin="round" fill-rule="evenodd" transform="matrix(1.00184 0 0 1 322 413.01)"/><path d="M393.09 117.388C395.329 108.285 406.533 101.922 415.497 104.661 407.12 102.955 395.915 109.318 393.09 117.388" stroke="#000000" stroke-width="0.2976" stroke-linecap="round" stroke-linejoin="round" fill-rule="evenodd" transform="matrix(1.00184 0 0 1 322 413.01)"/><path d="M425.181 117.388C431.485 106.399 449.584 100.035 461.379 104.661 449.979 101.156 431.879 107.519 425.181 117.388" stroke="#000000" stroke-width="0.2976" stroke-linecap="round" stroke-linejoin="round" fill-rule="evenodd" transform="matrix(1.00184 0 0 1 322 413.01)"/><path d="M141.771 101.055C144.062 98.7203 150.934 98.7203 153.224 101.055 150.934 99.9082 144.062 99.9082 141.771 101.055" stroke="#000000" stroke-width="0.2976" stroke-linecap="round" stroke-linejoin="round" fill-rule="evenodd" transform="matrix(1.00184 0 0 1 322 413.01)"/><path d="M227.849 114.439C229.903 112.148 236.067 112.148 238.123 114.439 236.067 113.336 229.903 113.336 227.849 114.439" stroke="#000000" stroke-width="0.2976" stroke-linecap="round" stroke-linejoin="round" fill-rule="evenodd" transform="matrix(1.00184 0 0 1 322 413.01)"/><path d="M328.981 101.055C331.307 98.6942 338.282 98.6942 340.606 101.055 338.282 99.882 331.307 99.882 328.981 101.055" stroke="#000000" stroke-width="0.2976" stroke-linecap="round" stroke-linejoin="round" fill-rule="evenodd" transform="matrix(1.00184 0 0 1 322 413.01)"/><path d="M426.007 118.024C429.043 115.123 438.149 115.123 441.185 118.024 438.149 116.311 429.043 116.311 426.007 118.024" stroke="#000000" stroke-width="0.2976" stroke-linecap="round" stroke-linejoin="round" fill-rule="evenodd" transform="matrix(1.00184 0 0 1 322 413.01)"/><path d="M125.773 86.2073C126.791 87.3103 129.845 87.3103 130.864 86.2073 129.845 88.4981 126.791 88.4981 125.773 86.2073" stroke="#000000" stroke-width="0.2976" stroke-linecap="round" stroke-linejoin="round" fill-rule="evenodd" transform="matrix(1.00184 0 0 1 322 413.01)"/><path d="M148.133 84.0863C149.152 85.1893 152.206 85.1893 153.224 84.0863 152.206 86.3771 149.152 86.3771 148.133 84.0863" stroke="#000000" stroke-width="0.2976" stroke-linecap="round" stroke-linejoin="round" fill-rule="evenodd" transform="matrix(1.00184 0 0 1 322 413.01)"/><path d="M230.44 93.1641C231.457 94.2671 234.512 94.2671 235.53 93.1641 234.512 95.455 231.457 95.455 230.44 93.1641" stroke="#000000" stroke-width="0.2976" stroke-linecap="round" stroke-linejoin="round" fill-rule="evenodd" transform="matrix(1.00184 0 0 1 322 413.01)"/><path d="M230.44 78.3806C231.457 76.0898 234.512 76.0898 235.53 78.3806 234.512 77.2776 231.457 77.2776 230.44 78.3806" stroke="#000000" stroke-width="0.2976" stroke-linecap="round" stroke-linejoin="round" fill-rule="evenodd" transform="matrix(1.00184 0 0 1 322 413.01)"/><path d="M308.953 69.8961C309.971 67.6054 313.025 67.6054 314.043 69.8961 313.025 68.7933 309.971 68.7933 308.953 69.8961" stroke="#000000" stroke-width="0.2976" stroke-linecap="round" stroke-linejoin="round" fill-rule="evenodd" transform="matrix(1.00184 0 0 1 322 413.01)"/><path d="M335.516 79.8441C336.534 80.9471 339.589 80.9471 340.606 79.8441 339.589 82.1348 336.534 82.1348 335.516 79.8441" stroke="#000000" stroke-width="0.2976" stroke-linecap="round" stroke-linejoin="round" fill-rule="evenodd" transform="matrix(1.00184 0 0 1 322 413.01)"/><path d="M428.598 84.6798C430.598 85.7828 436.594 85.7828 438.594 84.6798 436.594 86.9706 430.598 86.9706 428.598 84.6798" stroke="#000000" stroke-width="0.2976" stroke-linecap="round" stroke-linejoin="round" fill-rule="evenodd" transform="matrix(1.00184 0 0 1 322 413.01)"/><path d="M428.598 77.1295C430.598 74.8386 436.594 74.8386 438.594 77.1295 436.594 76.0265 430.598 76.0265 428.598 77.1295" stroke="#000000" stroke-width="0.2976" stroke-linecap="round" stroke-linejoin="round" fill-rule="evenodd" transform="matrix(1.00184 0 0 1 322 413.01)"/><path d="M63.8517 110.367 63.8517 127.802" stroke="#000000" stroke-width="0.762813" stroke-linejoin="bevel" fill="none" transform="matrix(1.00184 0 0 1 322 413.01)"/><path d="M190.435 110.367 190.435 127.802" stroke="#000000" stroke-width="0.762813" stroke-linejoin="bevel" fill="none" transform="matrix(1.00184 0 0 1 322 413.01)"/><path d="M279.804 110.367 279.804 127.802" stroke="#000000" stroke-width="0.762813" stroke-linejoin="bevel" fill="none" transform="matrix(1.00184 0 0 1 322 413.01)"/><path d="M382.299 110.367 382.299 127.802" stroke="#000000" stroke-width="0.762813" stroke-linejoin="bevel" fill="none" transform="matrix(1.00184 0 0 1 322 413.01)"/><path d="M472.32 110.367 472.32 127.802" stroke="#000000" stroke-width="0.762813" stroke-linejoin="bevel" fill="none" transform="matrix(1.00184 0 0 1 322 413.01)"/><path d="M63.8517 65.8236 63.8517 110.6" stroke="#000000" stroke-width="0.762813" stroke-linejoin="bevel" fill="none" transform="matrix(1.00184 0 0 1 322 413.01)"/><path d="M190.435 65.8236 190.435 110.6" stroke="#000000" stroke-width="0.762813" stroke-linejoin="bevel" fill="none" transform="matrix(1.00184 0 0 1 322 413.01)"/><path d="M279.804 65.8236 279.804 110.6" stroke="#000000" stroke-width="0.762813" stroke-linejoin="bevel" fill="none" transform="matrix(1.00184 0 0 1 322 413.01)"/><path d="M382.299 65.8236 382.299 110.6" stroke="#000000" stroke-width="0.762813" stroke-linejoin="bevel" fill="none" transform="matrix(1.00184 0 0 1 322 413.01)"/><path d="M472.32 65.8236 472.32 110.6" stroke="#000000" stroke-width="0.762813" stroke-linejoin="bevel" fill="none" transform="matrix(1.00184 0 0 1 322 413.01)"/><path d="M3.40967-1.34159C3.30891-2.00179 2.90061-2.63016 2.03625-2.63016 1.18781-2.63016 0.694659-2.1052 0.609815-2.00179L0.678751-7.45036C0.678751-7.58556 0.577998-7.68632 0.440127-7.68632L0.238623-7.68632C0.100752-7.68632 0-7.58556 0-7.45036L0.0848438 2.74947C0.0848438 2.88469 0.185596 2.98545 0.323467 2.98545 0.355283 2.98545 0.424219 2.96953 0.458688 2.95363 0.524971 2.91915 1.62794 2.37563 2.54531 1.34159 3.1896 0.609815 3.44413-0.220064 3.44413-0.917374 3.44413-1.0685 3.42822-1.20372 3.40967-1.34159M2.2404-0.678751C2.2404-0.424219 2.17148 0.355283 1.74726 1.00222 1.45825 1.44234 0.882907 1.90103 0.55944 2.15556L0.609815-1.15335C0.644284-1.30713 0.898815-1.79764 1.57757-1.79764 2.19004-1.79764 2.2404-1.22228 2.2404-0.864346L2.2404-0.678751" transform="matrix(1.00184 0 0 1 606.398 532.094)"/><path d="M3.40967-1.34159C3.30891-2.00179 2.90061-2.63016 2.03625-2.63016 1.18781-2.63016 0.694659-2.1052 0.609815-2.00179L0.678751-7.45036C0.678751-7.58556 0.577998-7.68632 0.440127-7.68632L0.238623-7.68632C0.100752-7.68632 0-7.58556 0-7.45036L0.0848438 2.74947C0.0848438 2.88469 0.185596 2.98545 0.323467 2.98545 0.355283 2.98545 0.424219 2.96953 0.458688 2.95363 0.524971 2.91915 1.62794 2.37563 2.54531 1.34159 3.1896 0.609815 3.44413-0.220064 3.44413-0.917374 3.44413-1.0685 3.42822-1.20372 3.40967-1.34159M2.2404-0.678751C2.2404-0.424219 2.17148 0.355283 1.74726 1.00222 1.45825 1.44234 0.882907 1.90103 0.55944 2.15556L0.609815-1.15335C0.644284-1.30713 0.898815-1.79764 1.57757-1.79764 2.19004-1.79764 2.2404-1.22228 2.2404-0.864346L2.2404-0.678751" transform="matrix(1.00184 0 0 1 630.175 523.61)"/><path d="M3.40967-1.34159C3.30891-2.00179 2.90061-2.63016 2.03625-2.63016 1.18781-2.63016 0.694659-2.1052 0.609815-2.00179L0.678751-7.45036C0.678751-7.58556 0.577998-7.68632 0.440127-7.68632L0.238623-7.68632C0.100752-7.68632 0-7.58556 0-7.45036L0.0848438 2.74947C0.0848438 2.88469 0.185596 2.98545 0.323467 2.98545 0.355283 2.98545 0.424219 2.96953 0.458688 2.95363 0.524971 2.91915 1.62794 2.37563 2.54531 1.34159 3.1896 0.609815 3.44413-0.220064 3.44413-0.917374 3.44413-1.0685 3.42822-1.20372 3.40967-1.34159M2.2404-0.678751C2.2404-0.424219 2.17148 0.355283 1.74726 1.00222 1.45825 1.44234 0.882907 1.90103 0.55944 2.15556L0.609815-1.15335C0.644284-1.30713 0.898815-1.79764 1.57757-1.79764 2.19004-1.79764 2.2404-1.22228 2.2404-0.864346L2.2404-0.678751" transform="matrix(1.00184 0 0 1 641.996 517.247)"/><path d="M3.40967-1.34159C3.30891-2.00179 2.90061-2.63016 2.03625-2.63016 1.18781-2.63016 0.694659-2.1052 0.609815-2.00179L0.678751-7.45036C0.678751-7.58556 0.577998-7.68632 0.440127-7.68632L0.238623-7.68632C0.100752-7.68632 0-7.58556 0-7.45036L0.0848438 2.74947C0.0848438 2.88469 0.185596 2.98545 0.323467 2.98545 0.355283 2.98545 0.424219 2.96953 0.458688 2.95363 0.524971 2.91915 1.62794 2.37563 2.54531 1.34159 3.1896 0.609815 3.44413-0.220064 3.44413-0.917374 3.44413-1.0685 3.42822-1.20372 3.40967-1.34159M2.2404-0.678751C2.2404-0.424219 2.17148 0.355283 1.74726 1.00222 1.45825 1.44234 0.882907 1.90103 0.55944 2.15556L0.609815-1.15335C0.644284-1.30713 0.898815-1.79764 1.57757-1.79764 2.19004-1.79764 2.2404-1.22228 2.2404-0.864346L2.2404-0.678751" transform="matrix(1.00184 0 0 1 643.483 489.672)"/><path d="M2.81576-3.10476C2.78395-3.13922 2.73092-3.15514 2.68054-3.15514 2.66462-3.15514 2.63016-3.13922 2.61426-3.13922L0.474596-2.54531 0.474596-5.51485 0-5.51485 0 2.88469C0 3.01991 0.100752 3.10476 0.238623 3.10476L0.304908 3.10476 2.44457 2.51085 2.44457 5.48038 2.90061 5.48038 2.90061-2.91915C2.90061-2.98545 2.86879-3.07029 2.81576-3.10476M2.44457 1.10297 0.474596 1.6465 0.474596-1.13744 2.44457-1.69688 2.44457 1.10297" transform="matrix(1.00184 0 0 1 709.083 489.672)"/><path d="M136.703 106.358 145.186 106.358" stroke="#000000" stroke-width="0.679006" stroke-linejoin="bevel" fill="none" transform="matrix(1.00184 0 0 1 322 413.01)"/><path d="M149.81 106.358 158.293 106.358" stroke="#000000" stroke-width="0.679006" stroke-linejoin="bevel" fill="none" transform="matrix(1.00184 0 0 1 322 413.01)"/><path d="M252.339 106.358 260.822 106.358" stroke="#000000" stroke-width="0.679006" stroke-linejoin="bevel" fill="none" transform="matrix(1.00184 0 0 1 322 413.01)"/><path d="M323.913 106.358 332.397 106.358" stroke="#000000" stroke-width="0.679006" stroke-linejoin="bevel" fill="none" transform="matrix(1.00184 0 0 1 322 413.01)"/><path d="M337.193 106.358 345.676 106.358" stroke="#000000" stroke-width="0.679006" stroke-linejoin="bevel" fill="none" transform="matrix(1.00184 0 0 1 322 413.01)"/><path d="M196.332 87.2679 204.814 87.2679" stroke="#000000" stroke-width="0.679006" stroke-linejoin="bevel" fill="none" transform="matrix(1.00184 0 0 1 322 413.01)"/><path d="M222.779 91.51 231.262 91.51" stroke="#000000" stroke-width="0.679006" stroke-linejoin="bevel" fill="none" transform="matrix(1.00184 0 0 1 322 413.01)"/><path d="M222.779 87.2679 231.262 87.2679" stroke="#000000" stroke-width="0.679006" stroke-linejoin="bevel" fill="none" transform="matrix(1.00184 0 0 1 322 413.01)"/><path d="M234.707 91.51 243.19 91.51" stroke="#000000" stroke-width="0.679006" stroke-linejoin="bevel" fill="none" transform="matrix(1.00184 0 0 1 322 413.01)"/><path d="M234.707 87.2679 243.19 87.2679" stroke="#000000" stroke-width="0.679006" stroke-linejoin="bevel" fill="none" transform="matrix(1.00184 0 0 1 322 413.01)"/><path d="M106.807 123.897 106.807 136.053" stroke="#000000" stroke-width="0.466924" stroke-linejoin="bevel" fill="none" transform="matrix(1.00184 0 0 1 322 413.01)"/><path d="M116.06 115.412 116.06 133.88" stroke="#000000" stroke-width="0.466924" stroke-linejoin="bevel" fill="none" transform="matrix(1.00184 0 0 1 322 413.01)"/><path d="M129.167 111.17 129.167 130.802" stroke="#000000" stroke-width="0.466924" stroke-linejoin="bevel" fill="none" transform="matrix(1.00184 0 0 1 322 413.01)"/><path d="M138.421 104.807 138.421 128.629" stroke="#000000" stroke-width="0.466924" stroke-linejoin="bevel" fill="none" transform="matrix(1.00184 0 0 1 322 413.01)"/><path d="M151.528 104.807 151.528 119.084" stroke="#000000" stroke-width="0.466924" stroke-linejoin="bevel" fill="none" transform="matrix(1.00184 0 0 1 322 413.01)"/><path d="M164.252 115.412 164.252 129.16" stroke="#000000" stroke-width="0.466924" stroke-linejoin="bevel" fill="none" transform="matrix(1.00184 0 0 1 322 413.01)"/><path d="M198.049 126.018 198.049 137.114" stroke="#000000" stroke-width="0.466924" stroke-linejoin="bevel" fill="none" transform="matrix(1.00184 0 0 1 322 413.01)"/><path d="M206.866 117.533 206.866 135.7" stroke="#000000" stroke-width="0.466924" stroke-linejoin="bevel" fill="none" transform="matrix(1.00184 0 0 1 322 413.01)"/><path d="M215.681 113.291 215.681 134.286" stroke="#000000" stroke-width="0.466924" stroke-linejoin="bevel" fill="none" transform="matrix(1.00184 0 0 1 322 413.01)"/><path d="M224.498 119.654 224.498 132.871" stroke="#000000" stroke-width="0.466924" stroke-linejoin="bevel" fill="none" transform="matrix(1.00184 0 0 1 322 413.01)"/><path d="M236.426 119.654 236.426 131.811" stroke="#000000" stroke-width="0.466924" stroke-linejoin="bevel" fill="none" transform="matrix(1.00184 0 0 1 322 413.01)"/><path d="M245.241 111.17 245.241 127.569" stroke="#000000" stroke-width="0.466924" stroke-linejoin="bevel" fill="none" transform="matrix(1.00184 0 0 1 322 413.01)"/><path d="M254.058 106.928 254.058 121.205" stroke="#000000" stroke-width="0.466924" stroke-linejoin="bevel" fill="none" transform="matrix(1.00184 0 0 1 322 413.01)"/><path d="M288.614 119.654 288.614 131.811" stroke="#000000" stroke-width="0.466924" stroke-linejoin="bevel" fill="none" transform="matrix(1.00184 0 0 1 322 413.01)"/><path d="M299.067 115.412 299.067 130.313" stroke="#000000" stroke-width="0.466924" stroke-linejoin="bevel" fill="none" transform="matrix(1.00184 0 0 1 322 413.01)"/><path d="M312.346 111.17 312.346 128.411" stroke="#000000" stroke-width="0.466924" stroke-linejoin="bevel" fill="none" transform="matrix(1.00184 0 0 1 322 413.01)"/><path d="M325.631 104.807 325.631 126.508" stroke="#000000" stroke-width="0.466924" stroke-linejoin="bevel" fill="none" transform="matrix(1.00184 0 0 1 322 413.01)"/><path d="M338.91 104.807 338.91 119.084" stroke="#000000" stroke-width="0.466924" stroke-linejoin="bevel" fill="none" transform="matrix(1.00184 0 0 1 322 413.01)"/><path d="M359.819 111.17 359.819 125.448" stroke="#000000" stroke-width="0.466924" stroke-linejoin="bevel" fill="none" transform="matrix(1.00184 0 0 1 322 413.01)"/><path d="M390.565 121.776 390.565 132.871" stroke="#000000" stroke-width="0.466924" stroke-linejoin="bevel" fill="none" transform="matrix(1.00184 0 0 1 322 413.01)"/><path d="M400.249 113.291 400.249 132.871" stroke="#000000" stroke-width="0.466924" stroke-linejoin="bevel" fill="none" transform="matrix(1.00184 0 0 1 322 413.01)"/><path d="M412.973 109.049 412.973 132.871" stroke="#000000" stroke-width="0.466924" stroke-linejoin="bevel" fill="none" transform="matrix(1.00184 0 0 1 322 413.01)"/><path d="M422.657 121.776 422.657 132.871" stroke="#000000" stroke-width="0.466924" stroke-linejoin="bevel" fill="none" transform="matrix(1.00184 0 0 1 322 413.01)"/><path d="M439.488 121.776 439.488 132.871" stroke="#000000" stroke-width="0.466924" stroke-linejoin="bevel" fill="none" transform="matrix(1.00184 0 0 1 322 413.01)"/><path d="M449.172 113.291 449.172 128.629" stroke="#000000" stroke-width="0.466924" stroke-linejoin="bevel" fill="none" transform="matrix(1.00184 0 0 1 322 413.01)"/><path d="M458.856 109.049 458.856 123.327" stroke="#000000" stroke-width="0.466924" stroke-linejoin="bevel" fill="none" transform="matrix(1.00184 0 0 1 322 413.01)"/><path d="M111.853 84.6039 111.853 70.2992" stroke="#000000" stroke-width="0.466924" stroke-linejoin="bevel" fill="none" transform="matrix(1.00184 0 0 1 322 413.01)"/><path d="M121.107 82.4827 121.107 70.2992" stroke="#000000" stroke-width="0.466924" stroke-linejoin="bevel" fill="none" transform="matrix(1.00184 0 0 1 322 413.01)"/><path d="M127.469 82.4827 127.469 70.2992" stroke="#000000" stroke-width="0.466924" stroke-linejoin="bevel" fill="none" transform="matrix(1.00184 0 0 1 322 413.01)"/><path d="M134.214 82.4827 134.214 67.1175" stroke="#000000" stroke-width="0.466924" stroke-linejoin="bevel" fill="none" transform="matrix(1.00184 0 0 1 322 413.01)"/><path d="M143.468 80.3617 143.468 67.1175" stroke="#000000" stroke-width="0.466924" stroke-linejoin="bevel" fill="none" transform="matrix(1.00184 0 0 1 322 413.01)"/><path d="M149.83 80.3617 149.83 67.1175" stroke="#000000" stroke-width="0.466924" stroke-linejoin="bevel" fill="none" transform="matrix(1.00184 0 0 1 322 413.01)"/><path d="M156.574 80.3617 156.574 66.0569" stroke="#000000" stroke-width="0.466924" stroke-linejoin="bevel" fill="none" transform="matrix(1.00184 0 0 1 322 413.01)"/><path d="M178.553 80.3617 178.553 66.0569" stroke="#000000" stroke-width="0.466924" stroke-linejoin="bevel" fill="none" transform="matrix(1.00184 0 0 1 322 413.01)"/><path d="M203.096 86.7249 203.096 67.1175" stroke="#000000" stroke-width="0.466924" stroke-linejoin="bevel" fill="none" transform="matrix(1.00184 0 0 1 322 413.01)"/><path d="M211.913 78.2405 211.913 67.1175" stroke="#000000" stroke-width="0.466924" stroke-linejoin="bevel" fill="none" transform="matrix(1.00184 0 0 1 322 413.01)"/><path d="M220.728 82.4827 220.728 67.1175" stroke="#000000" stroke-width="0.466924" stroke-linejoin="bevel" fill="none" transform="matrix(1.00184 0 0 1 322 413.01)"/><path d="M229.545 90.9672 229.545 67.1175" stroke="#000000" stroke-width="0.466924" stroke-linejoin="bevel" fill="none" transform="matrix(1.00184 0 0 1 322 413.01)"/><path d="M241.471 90.9672 241.471 66.0569" stroke="#000000" stroke-width="0.466924" stroke-linejoin="bevel" fill="none" transform="matrix(1.00184 0 0 1 322 413.01)"/><path d="M267.92 80.3617 267.92 66.0569" stroke="#000000" stroke-width="0.466924" stroke-linejoin="bevel" fill="none" transform="matrix(1.00184 0 0 1 322 413.01)"/><path d="M288.614 72.9904 288.614 87.2679" stroke="#000000" stroke-width="0.466924" stroke-linejoin="bevel" fill="none" transform="matrix(1.00184 0 0 1 322 413.01)"/><path d="M299.067 75.1114 299.067 87.2679" stroke="#000000" stroke-width="0.466924" stroke-linejoin="bevel" fill="none" transform="matrix(1.00184 0 0 1 322 413.01)"/><path d="M305.602 75.1114 305.602 87.2679" stroke="#000000" stroke-width="0.466924" stroke-linejoin="bevel" fill="none" transform="matrix(1.00184 0 0 1 322 413.01)"/><path d="M317.394 73.9984 317.394 61.8147" stroke="#000000" stroke-width="0.466924" stroke-linejoin="bevel" fill="none" transform="matrix(1.00184 0 0 1 322 413.01)"/><path d="M330.678 76.1195 330.678 62.5257" stroke="#000000" stroke-width="0.466924" stroke-linejoin="bevel" fill="none" transform="matrix(1.00184 0 0 1 322 413.01)"/><path d="M337.213 76.1195 337.213 62.8753" stroke="#000000" stroke-width="0.466924" stroke-linejoin="bevel" fill="none" transform="matrix(1.00184 0 0 1 322 413.01)"/><path d="M343.957 76.1195 343.957 64.9965" stroke="#000000" stroke-width="0.466924" stroke-linejoin="bevel" fill="none" transform="matrix(1.00184 0 0 1 322 413.01)"/><path d="M354.412 80.3617 354.412 65.35" stroke="#000000" stroke-width="0.466924" stroke-linejoin="bevel" fill="none" transform="matrix(1.00184 0 0 1 322 413.01)"/><path d="M364.866 80.3617 364.866 65.7035" stroke="#000000" stroke-width="0.466924" stroke-linejoin="bevel" fill="none" transform="matrix(1.00184 0 0 1 322 413.01)"/><path d="M375.321 78.2405 375.321 66.0569" stroke="#000000" stroke-width="0.466924" stroke-linejoin="bevel" fill="none" transform="matrix(1.00184 0 0 1 322 413.01)"/><path d="M395.613 80.3617 395.613 62.8753" stroke="#000000" stroke-width="0.466924" stroke-linejoin="bevel" fill="none" transform="matrix(1.00184 0 0 1 322 413.01)"/><path d="M411.659 76.1195 411.659 62.8753" stroke="#000000" stroke-width="0.466924" stroke-linejoin="bevel" fill="none" transform="matrix(1.00184 0 0 1 322 413.01)"/><path d="M427.704 82.4827 427.704 64.4661" stroke="#000000" stroke-width="0.466924" stroke-linejoin="bevel" fill="none" transform="matrix(1.00184 0 0 1 322 413.01)"/><path d="M444.535 82.4827 444.535 64.4661" stroke="#000000" stroke-width="0.466924" stroke-linejoin="bevel" fill="none" transform="matrix(1.00184 0 0 1 322 413.01)"/><path d="M5.34516-1.37341C5.04025-1.93551 4.39598-2.2404 3.61382-2.2404 3.03848-2.2404 2.41009-2.07072 1.79764-1.74726 0.678751-1.15335 0-0.153779 0 0.713219 0 0.94919 0.050376 1.18781 0.169688 1.40788 0.474596 1.96732 1.11888 2.25632 1.90103 2.25632 2.47639 2.25632 3.10476 2.1052 3.71723 1.78172 4.8361 1.18781 5.51485 0.185596 5.51485-0.678751 5.51485-0.917374 5.46447-1.15335 5.34516-1.37341" transform="matrix(1.00184 0 0 1 428.769 536.337)"/><path d="M5.34516-1.37341C5.04025-1.93551 4.39598-2.2404 3.61382-2.2404 3.03848-2.2404 2.41009-2.07072 1.79764-1.74726 0.678751-1.15335 0-0.153779 0 0.713219 0 0.94919 0.050376 1.18781 0.169688 1.40788 0.474596 1.96732 1.11888 2.25632 1.90103 2.25632 2.47639 2.25632 3.10476 2.1052 3.71723 1.78172 4.8361 1.18781 5.51485 0.185596 5.51485-0.678751 5.51485-0.917374 5.46447-1.15335 5.34516-1.37341" transform="matrix(1.00184 0 0 1 438.04 527.852)"/><path d="M5.34516-1.37341C5.04025-1.93551 4.39598-2.2404 3.61382-2.2404 3.03848-2.2404 2.41009-2.07072 1.79764-1.74726 0.678751-1.15335 0-0.153779 0 0.713219 0 0.94919 0.050376 1.18781 0.169688 1.40788 0.474596 1.96732 1.11888 2.25632 1.90103 2.25632 2.47639 2.25632 3.10476 2.1052 3.71723 1.78172 4.8361 1.18781 5.51485 0.185596 5.51485-0.678751 5.51485-0.917374 5.46447-1.15335 5.34516-1.37341" transform="matrix(1.00184 0 0 1 451.171 523.61)"/><path d="M5.34516-1.37341C5.04025-1.93551 4.39598-2.2404 3.61382-2.2404 3.03848-2.2404 2.41009-2.07072 1.79764-1.74726 0.678751-1.15335 0-0.153779 0 0.713219 0 0.94919 0.050376 1.18781 0.169688 1.40788 0.474596 1.96732 1.11888 2.25632 1.90103 2.25632 2.47639 2.25632 3.10476 2.1052 3.71723 1.78172 4.8361 1.18781 5.51485 0.185596 5.51485-0.678751 5.51485-0.917374 5.46447-1.15335 5.34516-1.37341" transform="matrix(1.00184 0 0 1 460.442 517.247)"/><path d="M5.34516-1.37341C5.04025-1.93551 4.39598-2.2404 3.61382-2.2404 3.03848-2.2404 2.41009-2.07072 1.79764-1.74726 0.678751-1.15335 0-0.153779 0 0.713219 0 0.94919 0.050376 1.18781 0.169688 1.40788 0.474596 1.96732 1.11888 2.25632 1.90103 2.25632 2.47639 2.25632 3.10476 2.1052 3.71723 1.78172 4.8361 1.18781 5.51485 0.185596 5.51485-0.678751 5.51485-0.917374 5.46447-1.15335 5.34516-1.37341" transform="matrix(1.00184 0 0 1 473.573 517.247)"/><path d="M5.34516-1.37341C5.04025-1.93551 4.39598-2.2404 3.61382-2.2404 3.03848-2.2404 2.41009-2.07072 1.79764-1.74726 0.678751-1.15335 0-0.153779 0 0.713219 0 0.94919 0.050376 1.18781 0.169688 1.40788 0.474596 1.96732 1.11888 2.25632 1.90103 2.25632 2.47639 2.25632 3.10476 2.1052 3.71723 1.78172 4.8361 1.18781 5.51485 0.185596 5.51485-0.678751 5.51485-0.917374 5.46447-1.15335 5.34516-1.37341" transform="matrix(1.00184 0 0 1 486.32 527.852)"/><path d="M5.34516-1.37341C5.04025-1.93551 4.39598-2.2404 3.61382-2.2404 3.03848-2.2404 2.41009-2.07072 1.79764-1.74726 0.678751-1.15335 0-0.153779 0 0.713219 0 0.94919 0.050376 1.18781 0.169688 1.40788 0.474596 1.96732 1.11888 2.25632 1.90103 2.25632 2.47639 2.25632 3.10476 2.1052 3.71723 1.78172 4.8361 1.18781 5.51485 0.185596 5.51485-0.678751 5.51485-0.917374 5.46447-1.15335 5.34516-1.37341" transform="matrix(1.00184 0 0 1 520.181 538.458)"/><path d="M5.34516-1.37341C5.04025-1.93551 4.39598-2.2404 3.61382-2.2404 3.03848-2.2404 2.41009-2.07072 1.79764-1.74726 0.678751-1.15335 0-0.153779 0 0.713219 0 0.94919 0.050376 1.18781 0.169688 1.40788 0.474596 1.96732 1.11888 2.25632 1.90103 2.25632 2.47639 2.25632 3.10476 2.1052 3.71723 1.78172 4.8361 1.18781 5.51485 0.185596 5.51485-0.678751 5.51485-0.917374 5.46447-1.15335 5.34516-1.37341" transform="matrix(1.00184 0 0 1 529.012 529.973)"/><path d="M5.34516-1.37341C5.04025-1.93551 4.39598-2.2404 3.61382-2.2404 3.03848-2.2404 2.41009-2.07072 1.79764-1.74726 0.678751-1.15335 0-0.153779 0 0.713219 0 0.94919 0.050376 1.18781 0.169688 1.40788 0.474596 1.96732 1.11888 2.25632 1.90103 2.25632 2.47639 2.25632 3.10476 2.1052 3.71723 1.78172 4.8361 1.18781 5.51485 0.185596 5.51485-0.678751 5.51485-0.917374 5.46447-1.15335 5.34516-1.37341" transform="matrix(1.00184 0 0 1 537.845 525.731)"/><path d="M5.34516-1.37341C5.04025-1.93551 4.39598-2.2404 3.61382-2.2404 3.03848-2.2404 2.41009-2.07072 1.79764-1.74726 0.678751-1.15335 0-0.153779 0 0.713219 0 0.94919 0.050376 1.18781 0.169688 1.40788 0.474596 1.96732 1.11888 2.25632 1.90103 2.25632 2.47639 2.25632 3.10476 2.1052 3.71723 1.78172 4.8361 1.18781 5.51485 0.185596 5.51485-0.678751 5.51485-0.917374 5.46447-1.15335 5.34516-1.37341" transform="matrix(1.00184 0 0 1 546.678 532.094)"/><path d="M5.34516-1.37341C5.04025-1.93551 4.39598-2.2404 3.61382-2.2404 3.03848-2.2404 2.41009-2.07072 1.79764-1.74726 0.678751-1.15335 0-0.153779 0 0.713219 0 0.94919 0.050376 1.18781 0.169688 1.40788 0.474596 1.96732 1.11888 2.25632 1.90103 2.25632 2.47639 2.25632 3.10476 2.1052 3.71723 1.78172 4.8361 1.18781 5.51485 0.185596 5.51485-0.678751 5.51485-0.917374 5.46447-1.15335 5.34516-1.37341" transform="matrix(1.00184 0 0 1 558.626 532.094)"/><path d="M5.34516-1.37341C5.04025-1.93551 4.39598-2.2404 3.61382-2.2404 3.03848-2.2404 2.41009-2.07072 1.79764-1.74726 0.678751-1.15335 0-0.153779 0 0.713219 0 0.94919 0.050376 1.18781 0.169688 1.40788 0.474596 1.96732 1.11888 2.25632 1.90103 2.25632 2.47639 2.25632 3.10476 2.1052 3.71723 1.78172 4.8361 1.18781 5.51485 0.185596 5.51485-0.678751 5.51485-0.917374 5.46447-1.15335 5.34516-1.37341" transform="matrix(1.00184 0 0 1 567.459 523.61)"/><path d="M5.34516-1.37341C5.04025-1.93551 4.39598-2.2404 3.61382-2.2404 3.03848-2.2404 2.41009-2.07072 1.79764-1.74726 0.678751-1.15335 0-0.153779 0 0.713219 0 0.94919 0.050376 1.18781 0.169688 1.40788 0.474596 1.96732 1.11888 2.25632 1.90103 2.25632 2.47639 2.25632 3.10476 2.1052 3.71723 1.78172 4.8361 1.18781 5.51485 0.185596 5.51485-0.678751 5.51485-0.917374 5.46447-1.15335 5.34516-1.37341" transform="matrix(1.00184 0 0 1 576.292 519.368)"/><path d="M5.34516-1.37341C5.04025-1.93551 4.39598-2.2404 3.61382-2.2404 3.03848-2.2404 2.41009-2.07072 1.79764-1.74726 0.678751-1.15335 0-0.153779 0 0.713219 0 0.94919 0.050376 1.18781 0.169688 1.40788 0.474596 1.96732 1.11888 2.25632 1.90103 2.25632 2.47639 2.25632 3.10476 2.1052 3.71723 1.78172 4.8361 1.18781 5.51485 0.185596 5.51485-0.678751 5.51485-0.917374 5.46447-1.15335 5.34516-1.37341" transform="matrix(1.00184 0 0 1 610.912 532.094)"/><path d="M5.34516-1.37341C5.04025-1.93551 4.39598-2.2404 3.61382-2.2404 3.03848-2.2404 2.41009-2.07072 1.79764-1.74726 0.678751-1.15335 0-0.153779 0 0.713219 0 0.94919 0.050376 1.18781 0.169688 1.40788 0.474596 1.96732 1.11888 2.25632 1.90103 2.25632 2.47639 2.25632 3.10476 2.1052 3.71723 1.78172 4.8361 1.18781 5.51485 0.185596 5.51485-0.678751 5.51485-0.917374 5.46447-1.15335 5.34516-1.37341" transform="matrix(1.00184 0 0 1 621.385 527.852)"/><path d="M5.34516-1.37341C5.04025-1.93551 4.39598-2.2404 3.61382-2.2404 3.03848-2.2404 2.41009-2.07072 1.79764-1.74726 0.678751-1.15335 0-0.153779 0 0.713219 0 0.94919 0.050376 1.18781 0.169688 1.40788 0.474596 1.96732 1.11888 2.25632 1.90103 2.25632 2.47639 2.25632 3.10476 2.1052 3.71723 1.78172 4.8361 1.18781 5.51485 0.185596 5.51485-0.678751 5.51485-0.917374 5.46447-1.15335 5.34516-1.37341" transform="matrix(1.00184 0 0 1 634.688 523.61)"/><path d="M5.34516-1.37341C5.04025-1.93551 4.39598-2.2404 3.61382-2.2404 3.03848-2.2404 2.41009-2.07072 1.79764-1.74726 0.678751-1.15335 0-0.153779 0 0.713219 0 0.94919 0.050376 1.18781 0.169688 1.40788 0.474596 1.96732 1.11888 2.25632 1.90103 2.25632 2.47639 2.25632 3.10476 2.1052 3.71723 1.78172 4.8361 1.18781 5.51485 0.185596 5.51485-0.678751 5.51485-0.917374 5.46447-1.15335 5.34516-1.37341" transform="matrix(1.00184 0 0 1 647.997 517.247)"/><path d="M5.34516-1.37341C5.04025-1.93551 4.39598-2.2404 3.61382-2.2404 3.03848-2.2404 2.41009-2.07072 1.79764-1.74726 0.678751-1.15335 0-0.153779 0 0.713219 0 0.94919 0.050376 1.18781 0.169688 1.40788 0.474596 1.96732 1.11888 2.25632 1.90103 2.25632 2.47639 2.25632 3.10476 2.1052 3.71723 1.78172 4.8361 1.18781 5.51485 0.185596 5.51485-0.678751 5.51485-0.917374 5.46447-1.15335 5.34516-1.37341" transform="matrix(1.00184 0 0 1 661.3 517.247)"/><path d="M5.34516-1.37341C5.04025-1.93551 4.39598-2.2404 3.61382-2.2404 3.03848-2.2404 2.41009-2.07072 1.79764-1.74726 0.678751-1.15335 0-0.153779 0 0.713219 0 0.94919 0.050376 1.18781 0.169688 1.40788 0.474596 1.96732 1.11888 2.25632 1.90103 2.25632 2.47639 2.25632 3.10476 2.1052 3.71723 1.78172 4.8361 1.18781 5.51485 0.185596 5.51485-0.678751 5.51485-0.917374 5.46447-1.15335 5.34516-1.37341" transform="matrix(1.00184 0 0 1 682.248 523.61)"/><path d="M5.34516-1.37341C5.04025-1.93551 4.39598-2.2404 3.61382-2.2404 3.03848-2.2404 2.41009-2.07072 1.79764-1.74726 0.678751-1.15335 0-0.153779 0 0.713219 0 0.94919 0.050376 1.18781 0.169688 1.40788 0.474596 1.96732 1.11888 2.25632 1.90103 2.25632 2.47639 2.25632 3.10476 2.1052 3.71723 1.78172 4.8361 1.18781 5.51485 0.185596 5.51485-0.678751 5.51485-0.917374 5.46447-1.15335 5.34516-1.37341" transform="matrix(1.00184 0 0 1 713.051 534.215)"/><path d="M5.34516-1.37341C5.04025-1.93551 4.39598-2.2404 3.61382-2.2404 3.03848-2.2404 2.41009-2.07072 1.79764-1.74726 0.678751-1.15335 0-0.153779 0 0.713219 0 0.94919 0.050376 1.18781 0.169688 1.40788 0.474596 1.96732 1.11888 2.25632 1.90103 2.25632 2.47639 2.25632 3.10476 2.1052 3.71723 1.78172 4.8361 1.18781 5.51485 0.185596 5.51485-0.678751 5.51485-0.917374 5.46447-1.15335 5.34516-1.37341" transform="matrix(1.00184 0 0 1 722.753 525.731)"/><path d="M5.34516-1.37341C5.04025-1.93551 4.39598-2.2404 3.61382-2.2404 3.03848-2.2404 2.41009-2.07072 1.79764-1.74726 0.678751-1.15335 0-0.153779 0 0.713219 0 0.94919 0.050376 1.18781 0.169688 1.40788 0.474596 1.96732 1.11888 2.25632 1.90103 2.25632 2.47639 2.25632 3.10476 2.1052 3.71723 1.78172 4.8361 1.18781 5.51485 0.185596 5.51485-0.678751 5.51485-0.917374 5.46447-1.15335 5.34516-1.37341" transform="matrix(1.00184 0 0 1 735.5 521.489)"/><path d="M5.34516-1.37341C5.04025-1.93551 4.39598-2.2404 3.61382-2.2404 3.03848-2.2404 2.41009-2.07072 1.79764-1.74726 0.678751-1.15335 0-0.153779 0 0.713219 0 0.94919 0.050376 1.18781 0.169688 1.40788 0.474596 1.96732 1.11888 2.25632 1.90103 2.25632 2.47639 2.25632 3.10476 2.1052 3.71723 1.78172 4.8361 1.18781 5.51485 0.185596 5.51485-0.678751 5.51485-0.917374 5.46447-1.15335 5.34516-1.37341" transform="matrix(1.00184 0 0 1 745.201 534.215)"/><path d="M5.34516-1.37341C5.04025-1.93551 4.39598-2.2404 3.61382-2.2404 3.03848-2.2404 2.41009-2.07072 1.79764-1.74726 0.678751-1.15335 0-0.153779 0 0.713219 0 0.94919 0.050376 1.18781 0.169688 1.40788 0.474596 1.96732 1.11888 2.25632 1.90103 2.25632 2.47639 2.25632 3.10476 2.1052 3.71723 1.78172 4.8361 1.18781 5.51485 0.185596 5.51485-0.678751 5.51485-0.917374 5.46447-1.15335 5.34516-1.37341" transform="matrix(1.00184 0 0 1 762.064 534.215)"/><path d="M5.34516-1.37341C5.04025-1.93551 4.39598-2.2404 3.61382-2.2404 3.03848-2.2404 2.41009-2.07072 1.79764-1.74726 0.678751-1.15335 0-0.153779 0 0.713219 0 0.94919 0.050376 1.18781 0.169688 1.40788 0.474596 1.96732 1.11888 2.25632 1.90103 2.25632 2.47639 2.25632 3.10476 2.1052 3.71723 1.78172 4.8361 1.18781 5.51485 0.185596 5.51485-0.678751 5.51485-0.917374 5.46447-1.15335 5.34516-1.37341" transform="matrix(1.00184 0 0 1 771.766 525.731)"/><path d="M5.34516-1.37341C5.04025-1.93551 4.39598-2.2404 3.61382-2.2404 3.03848-2.2404 2.41009-2.07072 1.79764-1.74726 0.678751-1.15335 0-0.153779 0 0.713219 0 0.94919 0.050376 1.18781 0.169688 1.40788 0.474596 1.96732 1.11888 2.25632 1.90103 2.25632 2.47639 2.25632 3.10476 2.1052 3.71723 1.78172 4.8361 1.18781 5.51485 0.185596 5.51485-0.678751 5.51485-0.917374 5.46447-1.15335 5.34516-1.37341" transform="matrix(1.00184 0 0 1 781.466 521.489)"/><path d="M5.34516-1.37341C5.04025-1.93551 4.39598-2.2404 3.61382-2.2404 3.03848-2.2404 2.41009-2.07072 1.79764-1.74726 0.678751-1.15335 0-0.153779 0 0.713219 0 0.94919 0.050376 1.18781 0.169688 1.40788 0.474596 1.96732 1.11888 2.25632 1.90103 2.25632 2.47639 2.25632 3.10476 2.1052 3.71723 1.78172 4.8361 1.18781 5.51485 0.185596 5.51485-0.678751 5.51485-0.917374 5.46447-1.15335 5.34516-1.37341" transform="matrix(1.00184 0 0 1 428.769 498.157)"/><path d="M5.34516-1.37341C5.04025-1.93551 4.39598-2.2404 3.61382-2.2404 3.03848-2.2404 2.41009-2.07072 1.79764-1.74726 0.678751-1.15335 0-0.153779 0 0.713219 0 0.94919 0.050376 1.18781 0.169688 1.40788 0.474596 1.96732 1.11888 2.25632 1.90103 2.25632 2.47639 2.25632 3.10476 2.1052 3.71723 1.78172 4.8361 1.18781 5.51485 0.185596 5.51485-0.678751 5.51485-0.917374 5.46447-1.15335 5.34516-1.37341" transform="matrix(1.00184 0 0 1 438.04 496.036)"/><path d="M5.34516-1.37341C5.04025-1.93551 4.39598-2.2404 3.61382-2.2404 3.03848-2.2404 2.41009-2.07072 1.79764-1.74726 0.678751-1.15335 0-0.153779 0 0.713219 0 0.94919 0.050376 1.18781 0.169688 1.40788 0.474596 1.96732 1.11888 2.25632 1.90103 2.25632 2.47639 2.25632 3.10476 2.1052 3.71723 1.78172 4.8361 1.18781 5.51485 0.185596 5.51485-0.678751 5.51485-0.917374 5.46447-1.15335 5.34516-1.37341" transform="matrix(1.00184 0 0 1 444.414 496.036)"/><path d="M5.34516-1.37341C5.04025-1.93551 4.39598-2.2404 3.61382-2.2404 3.03848-2.2404 2.41009-2.07072 1.79764-1.74726 0.678751-1.15335 0-0.153779 0 0.713219 0 0.94919 0.050376 1.18781 0.169688 1.40788 0.474596 1.96732 1.11888 2.25632 1.90103 2.25632 2.47639 2.25632 3.10476 2.1052 3.71723 1.78172 4.8361 1.18781 5.51485 0.185596 5.51485-0.678751 5.51485-0.917374 5.46447-1.15335 5.34516-1.37341" transform="matrix(1.00184 0 0 1 451.171 496.036)"/><path d="M5.34516-1.37341C5.04025-1.93551 4.39598-2.2404 3.61382-2.2404 3.03848-2.2404 2.41009-2.07072 1.79764-1.74726 0.678751-1.15335 0-0.153779 0 0.713219 0 0.94919 0.050376 1.18781 0.169688 1.40788 0.474596 1.96732 1.11888 2.25632 1.90103 2.25632 2.47639 2.25632 3.10476 2.1052 3.71723 1.78172 4.8361 1.18781 5.51485 0.185596 5.51485-0.678751 5.51485-0.917374 5.46447-1.15335 5.34516-1.37341" transform="matrix(1.00184 0 0 1 460.442 493.915)"/><path d="M5.34516-1.37341C5.04025-1.93551 4.39598-2.2404 3.61382-2.2404 3.03848-2.2404 2.41009-2.07072 1.79764-1.74726 0.678751-1.15335 0-0.153779 0 0.713219 0 0.94919 0.050376 1.18781 0.169688 1.40788 0.474596 1.96732 1.11888 2.25632 1.90103 2.25632 2.47639 2.25632 3.10476 2.1052 3.71723 1.78172 4.8361 1.18781 5.51485 0.185596 5.51485-0.678751 5.51485-0.917374 5.46447-1.15335 5.34516-1.37341" transform="matrix(1.00184 0 0 1 466.816 493.915)"/><path d="M5.34516-1.37341C5.04025-1.93551 4.39598-2.2404 3.61382-2.2404 3.03848-2.2404 2.41009-2.07072 1.79764-1.74726 0.678751-1.15335 0-0.153779 0 0.713219 0 0.94919 0.050376 1.18781 0.169688 1.40788 0.474596 1.96732 1.11888 2.25632 1.90103 2.25632 2.47639 2.25632 3.10476 2.1052 3.71723 1.78172 4.8361 1.18781 5.51485 0.185596 5.51485-0.678751 5.51485-0.917374 5.46447-1.15335 5.34516-1.37341" transform="matrix(1.00184 0 0 1 473.573 493.915)"/><path d="M5.34516-1.37341C5.04025-1.93551 4.39598-2.2404 3.61382-2.2404 3.03848-2.2404 2.41009-2.07072 1.79764-1.74726 0.678751-1.15335 0-0.153779 0 0.713219 0 0.94919 0.050376 1.18781 0.169688 1.40788 0.474596 1.96732 1.11888 2.25632 1.90103 2.25632 2.47639 2.25632 3.10476 2.1052 3.71723 1.78172 4.8361 1.18781 5.51485 0.185596 5.51485-0.678751 5.51485-0.917374 5.46447-1.15335 5.34516-1.37341" transform="matrix(1.00184 0 0 1 495.59 493.915)"/><path d="M5.34516-1.37341C5.04025-1.93551 4.39598-2.2404 3.61382-2.2404 3.03848-2.2404 2.41009-2.07072 1.79764-1.74726 0.678751-1.15335 0-0.153779 0 0.713219 0 0.94919 0.050376 1.18781 0.169688 1.40788 0.474596 1.96732 1.11888 2.25632 1.90103 2.25632 2.47639 2.25632 3.10476 2.1052 3.71723 1.78172 4.8361 1.18781 5.51485 0.185596 5.51485-0.678751 5.51485-0.917374 5.46447-1.15335 5.34516-1.37341" transform="matrix(1.00184 0 0 1 520.181 500.278)"/><path d="M5.34516-1.37341C5.04025-1.93551 4.39598-2.2404 3.61382-2.2404 3.03848-2.2404 2.41009-2.07072 1.79764-1.74726 0.678751-1.15335 0-0.153779 0 0.713219 0 0.94919 0.050376 1.18781 0.169688 1.40788 0.474596 1.96732 1.11888 2.25632 1.90103 2.25632 2.47639 2.25632 3.10476 2.1052 3.71723 1.78172 4.8361 1.18781 5.51485 0.185596 5.51485-0.678751 5.51485-0.917374 5.46447-1.15335 5.34516-1.37341" transform="matrix(1.00184 0 0 1 529.012 491.794)"/><path d="M5.34516-1.37341C5.04025-1.93551 4.39598-2.2404 3.61382-2.2404 3.03848-2.2404 2.41009-2.07072 1.79764-1.74726 0.678751-1.15335 0-0.153779 0 0.713219 0 0.94919 0.050376 1.18781 0.169688 1.40788 0.474596 1.96732 1.11888 2.25632 1.90103 2.25632 2.47639 2.25632 3.10476 2.1052 3.71723 1.78172 4.8361 1.18781 5.51485 0.185596 5.51485-0.678751 5.51485-0.917374 5.46447-1.15335 5.34516-1.37341" transform="matrix(1.00184 0 0 1 537.845 496.036)"/><path d="M5.34516-1.37341C5.04025-1.93551 4.39598-2.2404 3.61382-2.2404 3.03848-2.2404 2.41009-2.07072 1.79764-1.74726 0.678751-1.15335 0-0.153779 0 0.713219 0 0.94919 0.050376 1.18781 0.169688 1.40788 0.474596 1.96732 1.11888 2.25632 1.90103 2.25632 2.47639 2.25632 3.10476 2.1052 3.71723 1.78172 4.8361 1.18781 5.51485 0.185596 5.51485-0.678751 5.51485-0.917374 5.46447-1.15335 5.34516-1.37341" transform="matrix(1.00184 0 0 1 546.678 504.52)"/><path d="M5.34516-1.37341C5.04025-1.93551 4.39598-2.2404 3.61382-2.2404 3.03848-2.2404 2.41009-2.07072 1.79764-1.74726 0.678751-1.15335 0-0.153779 0 0.713219 0 0.94919 0.050376 1.18781 0.169688 1.40788 0.474596 1.96732 1.11888 2.25632 1.90103 2.25632 2.47639 2.25632 3.10476 2.1052 3.71723 1.78172 4.8361 1.18781 5.51485 0.185596 5.51485-0.678751 5.51485-0.917374 5.46447-1.15335 5.34516-1.37341" transform="matrix(1.00184 0 0 1 546.678 493.915)"/><path d="M5.34516-1.37341C5.04025-1.93551 4.39598-2.2404 3.61382-2.2404 3.03848-2.2404 2.41009-2.07072 1.79764-1.74726 0.678751-1.15335 0-0.153779 0 0.713219 0 0.94919 0.050376 1.18781 0.169688 1.40788 0.474596 1.96732 1.11888 2.25632 1.90103 2.25632 2.47639 2.25632 3.10476 2.1052 3.71723 1.78172 4.8361 1.18781 5.51485 0.185596 5.51485-0.678751 5.51485-0.917374 5.46447-1.15335 5.34516-1.37341" transform="matrix(1.00184 0 0 1 558.626 504.52)"/><path d="M5.34516-1.37341C5.04025-1.93551 4.39598-2.2404 3.61382-2.2404 3.03848-2.2404 2.41009-2.07072 1.79764-1.74726 0.678751-1.15335 0-0.153779 0 0.713219 0 0.94919 0.050376 1.18781 0.169688 1.40788 0.474596 1.96732 1.11888 2.25632 1.90103 2.25632 2.47639 2.25632 3.10476 2.1052 3.71723 1.78172 4.8361 1.18781 5.51485 0.185596 5.51485-0.678751 5.51485-0.917374 5.46447-1.15335 5.34516-1.37341" transform="matrix(1.00184 0 0 1 558.626 493.915)"/><path d="M5.34516-1.37341C5.04025-1.93551 4.39598-2.2404 3.61382-2.2404 3.03848-2.2404 2.41009-2.07072 1.79764-1.74726 0.678751-1.15335 0-0.153779 0 0.713219 0 0.94919 0.050376 1.18781 0.169688 1.40788 0.474596 1.96732 1.11888 2.25632 1.90103 2.25632 2.47639 2.25632 3.10476 2.1052 3.71723 1.78172 4.8361 1.18781 5.51485 0.185596 5.51485-0.678751 5.51485-0.917374 5.46447-1.15335 5.34516-1.37341" transform="matrix(1.00184 0 0 1 585.124 493.915)"/><path d="M5.34516-1.37341C5.04025-1.93551 4.39598-2.2404 3.61382-2.2404 3.03848-2.2404 2.41009-2.07072 1.79764-1.74726 0.678751-1.15335 0-0.153779 0 0.713219 0 0.94919 0.050376 1.18781 0.169688 1.40788 0.474596 1.96732 1.11888 2.25632 1.90103 2.25632 2.47639 2.25632 3.10476 2.1052 3.71723 1.78172 4.8361 1.18781 5.51485 0.185596 5.51485-0.678751 5.51485-0.917374 5.46447-1.15335 5.34516-1.37341" transform="matrix(1.00184 0 0 1 610.912 485.43)"/><path d="M5.34516-1.37341C5.04025-1.93551 4.39598-2.2404 3.61382-2.2404 3.03848-2.2404 2.41009-2.07072 1.79764-1.74726 0.678751-1.15335 0-0.153779 0 0.713219 0 0.94919 0.050376 1.18781 0.169688 1.40788 0.474596 1.96732 1.11888 2.25632 1.90103 2.25632 2.47639 2.25632 3.10476 2.1052 3.71723 1.78172 4.8361 1.18781 5.51485 0.185596 5.51485-0.678751 5.51485-0.917374 5.46447-1.15335 5.34516-1.37341" transform="matrix(1.00184 0 0 1 621.385 487.551)"/><path d="M5.34516-1.37341C5.04025-1.93551 4.39598-2.2404 3.61382-2.2404 3.03848-2.2404 2.41009-2.07072 1.79764-1.74726 0.678751-1.15335 0-0.153779 0 0.713219 0 0.94919 0.050376 1.18781 0.169688 1.40788 0.474596 1.96732 1.11888 2.25632 1.90103 2.25632 2.47639 2.25632 3.10476 2.1052 3.71723 1.78172 4.8361 1.18781 5.51485 0.185596 5.51485-0.678751 5.51485-0.917374 5.46447-1.15335 5.34516-1.37341" transform="matrix(1.00184 0 0 1 627.93 487.551)"/><path d="M5.34516-1.37341C5.04025-1.93551 4.39598-2.2404 3.61382-2.2404 3.03848-2.2404 2.41009-2.07072 1.79764-1.74726 0.678751-1.15335 0-0.153779 0 0.713219 0 0.94919 0.050376 1.18781 0.169688 1.40788 0.474596 1.96732 1.11888 2.25632 1.90103 2.25632 2.47639 2.25632 3.10476 2.1052 3.71723 1.78172 4.8361 1.18781 5.51485 0.185596 5.51485-0.678751 5.51485-0.917374 5.46447-1.15335 5.34516-1.37341" transform="matrix(1.00184 0 0 1 634.688 487.551)"/><path d="M5.34516-1.37341C5.04025-1.93551 4.39598-2.2404 3.61382-2.2404 3.03848-2.2404 2.41009-2.07072 1.79764-1.74726 0.678751-1.15335 0-0.153779 0 0.713219 0 0.94919 0.050376 1.18781 0.169688 1.40788 0.474596 1.96732 1.11888 2.25632 1.90103 2.25632 2.47639 2.25632 3.10476 2.1052 3.71723 1.78172 4.8361 1.18781 5.51485 0.185596 5.51485-0.678751 5.51485-0.917374 5.46447-1.15335 5.34516-1.37341" transform="matrix(1.00184 0 0 1 647.997 489.672)"/><path d="M5.34516-1.37341C5.04025-1.93551 4.39598-2.2404 3.61382-2.2404 3.03848-2.2404 2.41009-2.07072 1.79764-1.74726 0.678751-1.15335 0-0.153779 0 0.713219 0 0.94919 0.050376 1.18781 0.169688 1.40788 0.474596 1.96732 1.11888 2.25632 1.90103 2.25632 2.47639 2.25632 3.10476 2.1052 3.71723 1.78172 4.8361 1.18781 5.51485 0.185596 5.51485-0.678751 5.51485-0.917374 5.46447-1.15335 5.34516-1.37341" transform="matrix(1.00184 0 0 1 654.542 489.672)"/><path d="M5.34516-1.37341C5.04025-1.93551 4.39598-2.2404 3.61382-2.2404 3.03848-2.2404 2.41009-2.07072 1.79764-1.74726 0.678751-1.15335 0-0.153779 0 0.713219 0 0.94919 0.050376 1.18781 0.169688 1.40788 0.474596 1.96732 1.11888 2.25632 1.90103 2.25632 2.47639 2.25632 3.10476 2.1052 3.71723 1.78172 4.8361 1.18781 5.51485 0.185596 5.51485-0.678751 5.51485-0.917374 5.46447-1.15335 5.34516-1.37341" transform="matrix(1.00184 0 0 1 661.3 489.672)"/><path d="M5.34516-1.37341C5.04025-1.93551 4.39598-2.2404 3.61382-2.2404 3.03848-2.2404 2.41009-2.07072 1.79764-1.74726 0.678751-1.15335 0-0.153779 0 0.713219 0 0.94919 0.050376 1.18781 0.169688 1.40788 0.474596 1.96732 1.11888 2.25632 1.90103 2.25632 2.47639 2.25632 3.10476 2.1052 3.71723 1.78172 4.8361 1.18781 5.51485 0.185596 5.51485-0.678751 5.51485-0.917374 5.46447-1.15335 5.34516-1.37341" transform="matrix(1.00184 0 0 1 671.773 493.915)"/><path d="M5.34516-1.37341C5.04025-1.93551 4.39598-2.2404 3.61382-2.2404 3.03848-2.2404 2.41009-2.07072 1.79764-1.74726 0.678751-1.15335 0-0.153779 0 0.713219 0 0.94919 0.050376 1.18781 0.169688 1.40788 0.474596 1.96732 1.11888 2.25632 1.90103 2.25632 2.47639 2.25632 3.10476 2.1052 3.71723 1.78172 4.8361 1.18781 5.51485 0.185596 5.51485-0.678751 5.51485-0.917374 5.46447-1.15335 5.34516-1.37341" transform="matrix(1.00184 0 0 1 682.248 493.915)"/><path d="M5.34516-1.37341C5.04025-1.93551 4.39598-2.2404 3.61382-2.2404 3.03848-2.2404 2.41009-2.07072 1.79764-1.74726 0.678751-1.15335 0-0.153779 0 0.713219 0 0.94919 0.050376 1.18781 0.169688 1.40788 0.474596 1.96732 1.11888 2.25632 1.90103 2.25632 2.47639 2.25632 3.10476 2.1052 3.71723 1.78172 4.8361 1.18781 5.51485 0.185596 5.51485-0.678751 5.51485-0.917374 5.46447-1.15335 5.34516-1.37341" transform="matrix(1.00184 0 0 1 692.721 491.794)"/><path d="M5.34516-1.37341C5.04025-1.93551 4.39598-2.2404 3.61382-2.2404 3.03848-2.2404 2.41009-2.07072 1.79764-1.74726 0.678751-1.15335 0-0.153779 0 0.713219 0 0.94919 0.050376 1.18781 0.169688 1.40788 0.474596 1.96732 1.11888 2.25632 1.90103 2.25632 2.47639 2.25632 3.10476 2.1052 3.71723 1.78172 4.8361 1.18781 5.51485 0.185596 5.51485-0.678751 5.51485-0.917374 5.46447-1.15335 5.34516-1.37341" transform="matrix(1.00184 0 0 1 713.051 493.915)"/><path d="M5.34516-1.37341C5.04025-1.93551 4.39598-2.2404 3.61382-2.2404 3.03848-2.2404 2.41009-2.07072 1.79764-1.74726 0.678751-1.15335 0-0.153779 0 0.713219 0 0.94919 0.050376 1.18781 0.169688 1.40788 0.474596 1.96732 1.11888 2.25632 1.90103 2.25632 2.47639 2.25632 3.10476 2.1052 3.71723 1.78172 4.8361 1.18781 5.51485 0.185596 5.51485-0.678751 5.51485-0.917374 5.46447-1.15335 5.34516-1.37341" transform="matrix(1.00184 0 0 1 713.051 489.672)"/><path d="M5.34516-1.37341C5.04025-1.93551 4.39598-2.2404 3.61382-2.2404 3.03848-2.2404 2.41009-2.07072 1.79764-1.74726 0.678751-1.15335 0-0.153779 0 0.713219 0 0.94919 0.050376 1.18781 0.169688 1.40788 0.474596 1.96732 1.11888 2.25632 1.90103 2.25632 2.47639 2.25632 3.10476 2.1052 3.71723 1.78172 4.8361 1.18781 5.51485 0.185596 5.51485-0.678751 5.51485-0.917374 5.46447-1.15335 5.34516-1.37341" transform="matrix(1.00184 0 0 1 729.125 489.672)"/><path d="M5.34516-1.37341C5.04025-1.93551 4.39598-2.2404 3.61382-2.2404 3.03848-2.2404 2.41009-2.07072 1.79764-1.74726 0.678751-1.15335 0-0.153779 0 0.713219 0 0.94919 0.050376 1.18781 0.169688 1.40788 0.474596 1.96732 1.11888 2.25632 1.90103 2.25632 2.47639 2.25632 3.10476 2.1052 3.71723 1.78172 4.8361 1.18781 5.51485 0.185596 5.51485-0.678751 5.51485-0.917374 5.46447-1.15335 5.34516-1.37341" transform="matrix(1.00184 0 0 1 745.201 496.036)"/><path d="M5.34516-1.37341C5.04025-1.93551 4.39598-2.2404 3.61382-2.2404 3.03848-2.2404 2.41009-2.07072 1.79764-1.74726 0.678751-1.15335 0-0.153779 0 0.713219 0 0.94919 0.050376 1.18781 0.169688 1.40788 0.474596 1.96732 1.11888 2.25632 1.90103 2.25632 2.47639 2.25632 3.10476 2.1052 3.71723 1.78172 4.8361 1.18781 5.51485 0.185596 5.51485-0.678751 5.51485-0.917374 5.46447-1.15335 5.34516-1.37341" transform="matrix(1.00184 0 0 1 745.201 491.794)"/><path d="M5.34516-1.37341C5.04025-1.93551 4.39598-2.2404 3.61382-2.2404 3.03848-2.2404 2.41009-2.07072 1.79764-1.74726 0.678751-1.15335 0-0.153779 0 0.713219 0 0.94919 0.050376 1.18781 0.169688 1.40788 0.474596 1.96732 1.11888 2.25632 1.90103 2.25632 2.47639 2.25632 3.10476 2.1052 3.71723 1.78172 4.8361 1.18781 5.51485 0.185596 5.51485-0.678751 5.51485-0.917374 5.46447-1.15335 5.34516-1.37341" transform="matrix(1.00184 0 0 1 762.064 496.036)"/><path d="M5.34516-1.37341C5.04025-1.93551 4.39598-2.2404 3.61382-2.2404 3.03848-2.2404 2.41009-2.07072 1.79764-1.74726 0.678751-1.15335 0-0.153779 0 0.713219 0 0.94919 0.050376 1.18781 0.169688 1.40788 0.474596 1.96732 1.11888 2.25632 1.90103 2.25632 2.47639 2.25632 3.10476 2.1052 3.71723 1.78172 4.8361 1.18781 5.51485 0.185596 5.51485-0.678751 5.51485-0.917374 5.46447-1.15335 5.34516-1.37341" transform="matrix(1.00184 0 0 1 762.064 491.794)"/><path d="M4.31113-4.25811C3.01991-4.25811 1.98587-3.51306 1.96732-3.51306 0.983659-2.78395 0.593907-1.91694 0.440127-1.32303 0.355283-1.01813 0.323467-0.713219 0.323467-0.424219 0.323467-0.0159082 0.389752 0.355283 0.543532 0.678751 0.747686 1.13744 1.13744 1.45825 1.6465 1.62794 1.85066 1.69688 2.07072 1.73134 2.29078 1.73134 2.66462 1.73134 3.05438 1.62794 3.37785 1.44234 3.90282 1.15335 4.22629 0.543532 4.22629-0.119312 4.22629-0.713219 3.91873-1.25675 3.40967-1.57757 3.05438-1.81618 2.715-1.88248 2.42601-1.88248 2.22186-1.88248 2.03625-1.85066 1.88248-1.79764 1.71279-1.73134 1.42644-1.56166 1.28857-1.44234 1.34159-1.76582 1.5431-2.25632 1.73134-2.52941 1.91694-2.79985 2.29078-3.13922 2.57978-3.29301 3.004-3.52898 3.54754-3.63238 4.14145-3.63238 5.87279-3.63238 6.72123-2.2404 6.72123 0.609815 6.72123 2.19004 6.12732 3.69866 5.61826 4.70087 5.05617 5.81976 4.31113 6.89091 3.64828 7.48482 1.88248 9.09685 0.220064 9.86045 0.204156 9.86045 0.204156 9.86045-0.050376 10.0116 0.0159082 10.2661 0.0689356 10.4358 0.220064 10.4703 0.323467 10.4703 0.339375 10.4703 0.389752 10.4544 0.408311 10.4544 0.424219 10.4544 2.35973 9.65629 3.90282 8.44992 4.76982 7.82419 5.54931 7.14544 6.22806 6.41367 6.83789 5.75348 7.36551 5.04025 7.78973 4.32703 8.53476 3.05438 8.95898 1.73134 8.95898 0.593907 8.95898-0.813971 8.58779-1.98587 7.89047-2.81576 7.09242-3.76759 5.88869-4.25811 4.31113-4.25811M9.63773-2.1052C9.63773-1.62794 10.0116-1.25675 10.4544-1.25675 10.8945-1.25675 11.2683-1.62794 11.2683-2.1052 11.2683-2.57978 10.8945-2.96953 10.4544-2.96953 10.0116-2.96953 9.63773-2.57978 9.63773-2.1052M9.63773 2.08663C9.63773 2.56123 10.0116 2.95363 10.4544 2.95363 10.8945 2.95363 11.2683 2.56123 11.2683 2.08663 11.2683 1.61203 10.8945 1.22228 10.4544 1.22228 10.0116 1.22228 9.63773 1.61203 9.63773 2.08663" transform="matrix(1.00184 0 0 1 389.752 527.852)"/><path d="M10.7513-1.00487C10.5418-1.9249 10.0938-2.57448 9.96119-2.74947 9.42031-3.47595 8.73891-3.95849 7.9435-4.18916 7.41587-4.33764 6.90681-4.35885 6.49586-4.32703 6.31822-5.34781 6.14853-6.34472 5.99474-7.27006 6.92008-8.31734 7.5352-9.301 7.92229-10.0301 8.5109-11.1464 8.70445-11.9232 8.71506-11.9577 9.0067-12.8432 9.06768-14.1504 8.87943-15.5423 8.70974-16.8229 8.35447-17.963 7.95411-18.5144 7.78177-18.7557 7.60148-18.8805 7.42648-18.8805 7.21968-18.8805 6.79282-18.6709 6.3023-18.199 5.91256-17.8279 5.35841-17.1676 4.92359-16.1468 4.41453-14.9484 4.37741-13.339 4.4384-12.1989 4.50203-10.9634 4.69027-9.99832 4.69293-9.99036 4.69558-9.97446 4.74065-9.71993 4.81489-9.2851 4.77778-9.24533 4.73535-9.2082 4.69293-9.16578 4.51793-8.99609 4.31643-8.80519 4.08046-8.56923 3.93463-8.4234 3.7729-8.26962 3.60321-8.10523 2.17148-6.72387 0-4.63195 0-1.38136 0-0.583301 0.153779 0.167036 0.456035 0.848438 0.723825 1.45825 1.11358 2.01504 1.61203 2.50289 2.92446 3.78616 4.72208 4.32968 5.91786 4.30318 6.41896 4.28992 6.86705 4.25015 7.27271 4.17326 7.58292 5.80384 7.77646 6.99697 7.78177 7.90373 7.78973 9.00936 7.50868 9.68545 6.84849 10.1548 6.43488 10.449 5.95763 10.6108 5.43265 10.6346 4.99253 10.6559 4.60809 10.5763 4.36681 10.5074L4.36416 10.5074C4.36416 10.5074 4.31643 10.4915 4.31378 10.4596 4.31113 10.4278 4.3721 10.4199 4.3721 10.4199L4.37741 10.4199C4.70354 10.3457 5.30805 10.1362 5.70839 9.57675 6.01331 9.14723 6.16178 8.36243 5.84893 7.69428 5.66068 7.28861 5.23646 6.78751 4.28197 6.71062 3.85775 6.67616 3.4733 6.76365 3.13393 6.9678 2.82637 7.15074 2.57184 7.42914 2.39419 7.76852 1.97793 8.56658 2.05482 9.53963 2.58509 10.1919 3.08884 10.807 3.871 11.1994 4.79368 11.2975 4.93951 11.3134 5.08267 11.3187 5.22585 11.3187 5.97884 11.3187 6.72387 11.1145 7.33103 10.7407 7.95146 10.3032 8.31205 9.62713 8.42606 8.67263 8.52151 7.88518 8.45521 6.88031 8.21924 5.50955 8.15826 5.15426 8.06547 4.6399 7.95411 4.00358 8.92981 3.67745 9.63508 3.07029 10.2741 2.07603 10.8335 1.10297 10.9926 0.0662842 10.7513-1.00487M4.9448 3.44413C4.15735 3.23732 3.40436 2.8131 2.76803 2.21654 2.54531 2.00975 2.22715 1.6412 1.97793 1.06585 1.74726 0.527623 1.63324-0.0556788 1.64385-0.662842 1.65445-1.46091 1.87717-2.28018 2.30139-3.0915 2.7972-4.03804 3.5714-4.97662 4.60013-5.88075 4.8467-6.09815 5.08002-6.31557 5.29744-6.53297 5.42736-5.80915 5.56788-5.01374 5.71635-4.18652 5.06412-3.97176 4.25811-3.43617 3.73048-2.47639 3.12862-1.3628 3.15247-0.424219 3.27709 0.167036 3.43617 0.922677 3.8657 1.56166 4.45165 1.91694 4.61074 2.01239 5.3107 2.37298 5.62355 2.27488 5.68718 2.25632 5.73227 2.21654 5.75613 2.16087 5.84362 1.96201 5.66864 1.85331 5.40615 1.69157 5.30274 1.62794 5.18873 1.55635 5.06677 1.46621 4.50203 1.04464 4.25544 0.289 4.4384-0.456035 4.5365-0.861696 4.7539-1.23024 5.06677-1.51924 5.34781-1.78172 5.69514-1.96732 6.09815-2.07603 6.44548-0.167036 6.79546 1.72605 7.07385 3.14453 7.09506 3.26119 7.11892 3.37519 7.14013 3.4892 6.39775 3.64828 5.66068 3.63238 4.9448 3.44413M6.86705-2.19004C8.62225-2.26957 9.34607-1.00752 9.49721-0.188248 9.57675 0.243926 9.57675 0.996915 9.31426 1.71279 9.11542 2.25101 8.69914 2.94303 7.82684 3.29301 7.81624 3.22142 7.80298 3.14718 7.78973 3.07559 7.52724 1.58552 7.19847-0.281045 6.86705-2.19004M5.62355-14.2299C5.92581-15.203 6.38981-15.7544 6.72918-16.0487 7.02614-16.3059 7.30453-16.4279 7.46096-16.4279 7.48482-16.4279 7.50603-16.4226 7.52193-16.4173 7.60148-16.3934 7.69162-16.298 7.77117-16.1495 8.16357-15.423 8.0363-14.2829 7.80828-13.5299 7.53254-12.6126 7.03674-11.6607 5.54402-10.0301 5.51485-10.2184 5.48834-10.396 5.46182-10.5631 5.24971-11.9683 5.30539-13.2038 5.62355-14.2299" transform="matrix(1.00184 0 0 1 389.752 491.794)"/><path d="M3.40967-1.34159C3.30891-2.00179 2.90061-2.63016 2.03625-2.63016 1.18781-2.63016 0.694659-2.1052 0.609815-2.00179L0.678751-7.45036C0.678751-7.58556 0.577998-7.68632 0.440127-7.68632L0.238623-7.68632C0.100752-7.68632 0-7.58556 0-7.45036L0.0848438 2.74947C0.0848438 2.88469 0.185596 2.98545 0.323467 2.98545 0.355283 2.98545 0.424219 2.96953 0.458688 2.95363 0.524971 2.91915 1.62794 2.37563 2.54531 1.34159 3.1896 0.609815 3.44413-0.220064 3.44413-0.917374 3.44413-1.0685 3.42822-1.20372 3.40967-1.34159M2.2404-0.678751C2.2404-0.424219 2.17148 0.355283 1.74726 1.00222 1.45825 1.44234 0.882907 1.90103 0.55944 2.15556L0.609815-1.15335C0.644284-1.30713 0.898815-1.79764 1.57757-1.79764 2.19004-1.79764 2.2404-1.22228 2.2404-0.864346L2.2404-0.678751" transform="matrix(1.00184 0 0 1 405.289 536.337)"/><path d="M3.40967-1.34159C3.30891-2.00179 2.90061-2.63016 2.03625-2.63016 1.18781-2.63016 0.694659-2.1052 0.609815-2.00179L0.678751-7.45036C0.678751-7.58556 0.577998-7.68632 0.440127-7.68632L0.238623-7.68632C0.100752-7.68632 0-7.58556 0-7.45036L0.0848438 2.74947C0.0848438 2.88469 0.185596 2.98545 0.323467 2.98545 0.355283 2.98545 0.424219 2.96953 0.458688 2.95363 0.524971 2.91915 1.62794 2.37563 2.54531 1.34159 3.1896 0.609815 3.44413-0.220064 3.44413-0.917374 3.44413-1.0685 3.42822-1.20372 3.40967-1.34159M2.2404-0.678751C2.2404-0.424219 2.17148 0.355283 1.74726 1.00222 1.45825 1.44234 0.882907 1.90103 0.55944 2.15556L0.609815-1.15335C0.644284-1.30713 0.898815-1.79764 1.57757-1.79764 2.19004-1.79764 2.2404-1.22228 2.2404-0.864346L2.2404-0.678751" transform="matrix(1.00184 0 0 1 405.289 487.551)"/><path d="M0.609815 2.14231 3.52367 2.14231 3.52367 3.40701 2.12905 3.40701C1.99648 3.40701 1.88777 3.51306 1.88777 3.64564L1.88777 3.9691C1.88777 4.10167 1.99648 4.20773 2.12905 4.20773L7.2621 4.20773C7.39466 4.20773 7.50072 4.10167 7.50072 3.9691L7.50072 3.64564C7.50072 3.51306 7.39466 3.40701 7.2621 3.40701L5.74552 3.40701 5.74552 2.14231 7.2621 2.14231C7.39466 2.14231 7.50072 2.03625 7.50072 1.90369L7.50072 1.58022C7.50072 1.44765 7.39466 1.34159 7.2621 1.34159L5.74552 1.34159 5.74552-1.36811C5.74552-1.45825 5.69249-1.54045 5.61294-1.58022L5.40615-1.68362C5.31599-1.72605 5.20994-1.71013 5.1357-1.64385L3.60057-0.23332C3.55283-0.185596 3.52367-0.124614 3.52367-0.0556788L3.52367 1.34159 1.56961 1.34159C1.56961 1.34159 3.45739-0.699961 5.46713-3.37519 5.61294-3.5714 5.5281-3.74904 5.49628-3.78086L5.12776-4.1547C5.08267-4.19977 5.0217-4.22629 4.95807-4.22629 4.85731-4.22629 2.55592-4.22098 2.43397-4.22629 2.31199-4.22894 2.22186-4.12288 2.20859-4.01948 2.20859-4.01948 2.11845-2.77068 1.67567-1.38932 1.23554-0.0132568 0.737081 0.83253 0.286348 1.44765 0.286348 1.44765 0.193551 1.61468 0.254531 1.74195 0.312862 1.86921 0.421569 2.05217 0.421569 2.05217 0.421569 2.05217 0.46399 2.14231 0.609815 2.14231" transform="matrix(1.00184 0 0 1 412.756 527.875)"/><path d="M0.609815 2.14231 3.52367 2.14231 3.52367 3.40701 2.12905 3.40701C1.99648 3.40701 1.88777 3.51306 1.88777 3.64564L1.88777 3.9691C1.88777 4.10167 1.99648 4.20773 2.12905 4.20773L7.2621 4.20773C7.39466 4.20773 7.50072 4.10167 7.50072 3.9691L7.50072 3.64564C7.50072 3.51306 7.39466 3.40701 7.2621 3.40701L5.74552 3.40701 5.74552 2.14231 7.2621 2.14231C7.39466 2.14231 7.50072 2.03625 7.50072 1.90369L7.50072 1.58022C7.50072 1.44765 7.39466 1.34159 7.2621 1.34159L5.74552 1.34159 5.74552-1.36811C5.74552-1.45825 5.69249-1.54045 5.61294-1.58022L5.40615-1.68362C5.31599-1.72605 5.20994-1.71013 5.1357-1.64385L3.60057-0.23332C3.55283-0.185596 3.52367-0.124614 3.52367-0.0556788L3.52367 1.34159 1.56961 1.34159C1.56961 1.34159 3.45739-0.699961 5.46713-3.37519 5.61294-3.5714 5.5281-3.74904 5.49628-3.78086L5.12776-4.1547C5.08267-4.19977 5.0217-4.22629 4.95807-4.22629 4.85731-4.22629 2.55592-4.22098 2.43397-4.22629 2.31199-4.22894 2.22186-4.12288 2.20859-4.01948 2.20859-4.01948 2.11845-2.77068 1.67567-1.38932 1.23554-0.0132568 0.737081 0.83253 0.286348 1.44765 0.286348 1.44765 0.193551 1.61468 0.254531 1.74195 0.312862 1.86921 0.421569 2.05217 0.421569 2.05217 0.421569 2.05217 0.46399 2.14231 0.609815 2.14231" transform="matrix(1.00184 0 0 1 412.756 536.314)"/><path d="M0.609815 2.14231 3.52367 2.14231 3.52367 3.40701 2.12905 3.40701C1.99648 3.40701 1.88777 3.51306 1.88777 3.64564L1.88777 3.9691C1.88777 4.10167 1.99648 4.20773 2.12905 4.20773L7.2621 4.20773C7.39466 4.20773 7.50072 4.10167 7.50072 3.9691L7.50072 3.64564C7.50072 3.51306 7.39466 3.40701 7.2621 3.40701L5.74552 3.40701 5.74552 2.14231 7.2621 2.14231C7.39466 2.14231 7.50072 2.03625 7.50072 1.90369L7.50072 1.58022C7.50072 1.44765 7.39466 1.34159 7.2621 1.34159L5.74552 1.34159 5.74552-1.36811C5.74552-1.45825 5.69249-1.54045 5.61294-1.58022L5.40615-1.68362C5.31599-1.72605 5.20994-1.71013 5.1357-1.64385L3.60057-0.23332C3.55283-0.185596 3.52367-0.124614 3.52367-0.0556788L3.52367 1.34159 1.56961 1.34159C1.56961 1.34159 3.45739-0.699961 5.46713-3.37519 5.61294-3.5714 5.5281-3.74904 5.49628-3.78086L5.12776-4.1547C5.08267-4.19977 5.0217-4.22629 4.95807-4.22629 4.85731-4.22629 2.55592-4.22098 2.43397-4.22629 2.31199-4.22894 2.22186-4.12288 2.20859-4.01948 2.20859-4.01948 2.11845-2.77068 1.67567-1.38932 1.23554-0.0132568 0.737081 0.83253 0.286348 1.44765 0.286348 1.44765 0.193551 1.61468 0.254531 1.74195 0.312862 1.86921 0.421569 2.05217 0.421569 2.05217 0.421569 2.05217 0.46399 2.14231 0.609815 2.14231" transform="matrix(1.00184 0 0 1 412.756 483.332)"/><path d="M0.609815 2.14231 3.52367 2.14231 3.52367 3.40701 2.12905 3.40701C1.99648 3.40701 1.88777 3.51306 1.88777 3.64564L1.88777 3.9691C1.88777 4.10167 1.99648 4.20773 2.12905 4.20773L7.2621 4.20773C7.39466 4.20773 7.50072 4.10167 7.50072 3.9691L7.50072 3.64564C7.50072 3.51306 7.39466 3.40701 7.2621 3.40701L5.74552 3.40701 5.74552 2.14231 7.2621 2.14231C7.39466 2.14231 7.50072 2.03625 7.50072 1.90369L7.50072 1.58022C7.50072 1.44765 7.39466 1.34159 7.2621 1.34159L5.74552 1.34159 5.74552-1.36811C5.74552-1.45825 5.69249-1.54045 5.61294-1.58022L5.40615-1.68362C5.31599-1.72605 5.20994-1.71013 5.1357-1.64385L3.60057-0.23332C3.55283-0.185596 3.52367-0.124614 3.52367-0.0556788L3.52367 1.34159 1.56961 1.34159C1.56961 1.34159 3.45739-0.699961 5.46713-3.37519 5.61294-3.5714 5.5281-3.74904 5.49628-3.78086L5.12776-4.1547C5.08267-4.19977 5.0217-4.22629 4.95807-4.22629 4.85731-4.22629 2.55592-4.22098 2.43397-4.22629 2.31199-4.22894 2.22186-4.12288 2.20859-4.01948 2.20859-4.01948 2.11845-2.77068 1.67567-1.38932 1.23554-0.0132568 0.737081 0.83253 0.286348 1.44765 0.286348 1.44765 0.193551 1.61468 0.254531 1.74195 0.312862 1.86921 0.421569 2.05217 0.421569 2.05217 0.421569 2.05217 0.46399 2.14231 0.609815 2.14231" transform="matrix(1.00184 0 0 1 412.756 491.771)"/><path d="M4.5365-3.43882C4.40923-3.48655 4.29522-3.42822 4.23954-3.32483 4.18387-3.22142 3.64299-2.21654 2.89265-1.66241 2.65668-1.49007 2.38623-1.38136 2.1211-1.32568 2.31199-1.53779 2.42601-1.82149 2.42601-2.12905 2.42601-2.79985 1.88248-3.34337 1.21433-3.34337 0.543532-3.34337 0-2.79985 0-2.12905 0-1.61999 0.318164-1.17986 0.766246-1.00222 1.02608-0.880255 1.34955-0.803366 1.69688-0.803366 2.17943-0.803366 2.70704-0.943887 3.16839-1.28326 3.38315-1.43969 3.58465-1.64385 3.76759-1.85596L1.83475 4.18916 2.28282 4.33499 4.67172-3.14718C4.71148-3.2718 4.66112-3.38846 4.5365-3.43882" transform="matrix(1.00184 0 0 1 486.32 487.551)"/><path d="M4.5365-3.43882C4.40923-3.48655 4.29522-3.42822 4.23954-3.32483 4.18387-3.22142 3.64299-2.21654 2.89265-1.66241 2.65668-1.49007 2.38623-1.38136 2.1211-1.32568 2.31199-1.53779 2.42601-1.82149 2.42601-2.12905 2.42601-2.79985 1.88248-3.34337 1.21433-3.34337 0.543532-3.34337 0-2.79985 0-2.12905 0-1.61999 0.318164-1.17986 0.766246-1.00222 1.02608-0.880255 1.34955-0.803366 1.69688-0.803366 2.17943-0.803366 2.70704-0.943887 3.16839-1.28326 3.38315-1.43969 3.58465-1.64385 3.76759-1.85596L1.83475 4.18916 2.28282 4.33499 4.67172-3.14718C4.71148-3.2718 4.66112-3.38846 4.5365-3.43882" transform="matrix(1.00184 0 0 1 576.292 487.551)"/><path d="M4.5365-3.43882C4.40923-3.48655 4.29522-3.42822 4.23954-3.32483 4.18387-3.22142 3.64299-2.21654 2.89265-1.66241 2.65668-1.49007 2.38623-1.38136 2.1211-1.32568 2.31199-1.53779 2.42601-1.82149 2.42601-2.12905 2.42601-2.79985 1.88248-3.34337 1.21433-3.34337 0.543532-3.34337 0-2.79985 0-2.12905 0-1.61999 0.318164-1.17986 0.766246-1.00222 1.02608-0.880255 1.34955-0.803366 1.69688-0.803366 2.17943-0.803366 2.70704-0.943887 3.16839-1.28326 3.38315-1.43969 3.58465-1.64385 3.76759-1.85596L1.83475 4.18916 2.28282 4.33499 4.67172-3.14718C4.71148-3.2718 4.66112-3.38846 4.5365-3.43882" transform="matrix(1.00184 0 0 1 735.5 487.551)"/><path d="M3.93728 2.86879 3.90282 2.81576C3.88692 2.79985 3.85244 2.76538 3.80207 2.6991L1.85066 0.289C1.79764 0.238623 1.81618 0.100752 1.85066 0.0344678L3.57936-2.57978C3.5979-2.61426 3.61382-2.66462 3.61382-2.6991L3.61382-2.85023C3.61382-2.90061 3.5979-2.95363 3.56344-2.98545L0.813971-6.70266C0.813971-6.70266 0.678751-6.90681 0.509063-6.75304 0.339375-6.61782 0.474596-6.39775 0.474596-6.39775L1.76582-4.63195C1.8321-4.53119 1.8321-4.32703 1.76582-4.22629L0.050376-1.61203C0.0344678-1.57757 0.0159082-1.51128 0.0159082-1.47681L0.0159082-1.32303C0.0159082-1.27266 0.0344678-1.22228 0.0689356-1.18781L1.96732 1.17191C1.90103 1.15335 1.74726 1.11888 1.5431 1.11888 1.25675 1.11888 0.882907 1.18781 0.577998 1.45825 0.204156 1.79764 0 2.27488 0 2.6991 0 2.93507 0.050376 3.17368 0.185596 3.35929 0.543532 3.90282 1.81618 5.51485 1.81618 5.51485 1.81618 5.51485 1.96732 5.7031 2.1211 5.58379 2.27488 5.46447 2.2404 5.3107 2.19004 5.22585 2.13701 5.14101 1.59612 4.15735 1.59612 4.15735 1.59612 4.15735 1.47681 3.91873 1.47681 3.61382 1.47681 3.39375 1.5431 3.12332 1.76582 2.90061 1.96732 2.6991 2.20594 2.63016 2.42601 2.63016 2.64607 2.63016 2.83431 2.6991 2.96953 2.78395L3.63238 3.20817C3.63238 3.20817 3.83389 3.30891 3.93728 3.15514 4.02212 3.01991 3.98766 2.95363 3.93728 2.86879" transform="matrix(1.00184 0 0 1 781.466 487.551)"/><path d="M106.573 134.964 138.654 127.43 138.654 129.609 106.573 137.143 106.573 134.964" fill-rule="evenodd" transform="matrix(1.00184 0 0 1 322 413.01)"/><path d="M197.817 136.04 224.731 131.722 224.731 133.871 197.817 138.188 197.817 136.04" fill-rule="evenodd" transform="matrix(1.00184 0 0 1 322 413.01)"/><path d="M236.192 130.634 245.475 126.167 245.475 128.521 236.192 132.988 236.192 130.634" fill-rule="evenodd" transform="matrix(1.00184 0 0 1 322 413.01)"/><path d="M288.381 130.74 325.865 125.37 325.865 127.513 288.381 132.882 288.381 130.74" fill-rule="evenodd" transform="matrix(1.00184 0 0 1 322 413.01)"/><path d="M390.333 131.811 422.891 131.811 422.891 133.932 390.333 133.932 390.333 131.811" fill-rule="evenodd" transform="matrix(1.00184 0 0 1 322 413.01)"/><path d="M439.256 131.714 449.405 127.267 449.405 129.583 439.256 134.029 439.256 131.714" fill-rule="evenodd" transform="matrix(1.00184 0 0 1 322 413.01)"/><path d="M111.62 69.2386 127.703 69.2386 127.703 71.3596 111.62 71.3596 111.62 69.2386" fill-rule="evenodd" transform="matrix(1.00184 0 0 1 322 413.01)"/><path d="M120.874 72.4202 127.703 72.4202 127.703 74.5414 120.874 74.5414 120.874 72.4202" fill-rule="evenodd" transform="matrix(1.00184 0 0 1 322 413.01)"/><path d="M133.981 66.0569 150.063 66.0569 150.063 68.1781 133.981 68.1781 133.981 66.0569" fill-rule="evenodd" transform="matrix(1.00184 0 0 1 322 413.01)"/><path d="M143.235 69.2386 150.063 69.2386 150.063 71.3596 143.235 71.3596 143.235 69.2386" fill-rule="evenodd" transform="matrix(1.00184 0 0 1 322 413.01)"/><path d="M202.862 66.0569 229.778 66.0569 229.778 68.1781 202.862 68.1781 202.862 66.0569" fill-rule="evenodd" transform="matrix(1.00184 0 0 1 322 413.01)"/><path d="M288.381 86.2073 305.835 86.2073 305.835 88.3285 288.381 88.3285 288.381 86.2073" fill-rule="evenodd" transform="matrix(1.00184 0 0 1 322 413.01)"/><path d="M298.835 83.0257 305.835 83.0257 305.835 85.1469 298.835 85.1469 298.835 83.0257" fill-rule="evenodd" transform="matrix(1.00184 0 0 1 322 413.01)"/><path d="M317.161 60.7278 337.446 61.8132 337.446 63.9374 317.161 62.8519 317.161 60.7278" fill-rule="evenodd" transform="matrix(1.00184 0 0 1 322 413.01)"/><path d="M330.445 64.6202 337.446 64.9949 337.446 67.119 330.445 66.7444 330.445 64.6202" fill-rule="evenodd" transform="matrix(1.00184 0 0 1 322 413.01)"/><path d="M343.724 63.9195 375.554 64.9958 375.554 67.1182 343.724 66.0418 343.724 63.9195" fill-rule="evenodd" transform="matrix(1.00184 0 0 1 322 413.01)"/><path d="M395.38 61.8147 411.892 61.8147 411.892 63.9359 395.38 63.9359 395.38 61.8147" fill-rule="evenodd" transform="matrix(1.00184 0 0 1 322 413.01)"/><path d="M411.892 64.9965 406.378 64.9965 406.378 67.1175 411.892 67.1175 411.892 64.9965" fill-rule="evenodd" transform="matrix(1.00184 0 0 1 322 413.01)"/><path d="M0.593907 0.593907C0.577998 0.543532 0.424219-0.050376 0.424219-0.0848438 0.408311-0.153779 0.304908-0.204156 0.220064-0.204156 0.100752-0.204156 0-0.100752 0 0.0159082L0 2.79985 0 3.85244C0 3.93728 0.0689356 4.00358 0.13522 4.03804 0.848438 4.25811 2.32525 5.19404 3.42822 7.0765 3.73313 7.60148 4.22629 8.31469 4.22629 9.74114 4.22629 10.9634 4.03804 12.252 3.73313 13.4398 3.68275 13.628 3.63238 13.7977 3.81797 13.864 4.00358 13.9329 4.0725 13.7977 4.14145 13.628 4.75125 12.1327 4.90504 10.571 4.90504 9.52107L4.90504 9.1976C4.8202 7.00757 3.56344 5.39554 3.56344 5.39554 3.61382 5.39554 2.00179 3.30891 1.5431 2.59569 0.917374 1.62794 0.609815 0.662842 0.593907 0.593907" transform="matrix(1.00184 0 0 1 500.647 479.067)"/><path d="M0.593907 0.593907C0.577998 0.543532 0.424219-0.050376 0.424219-0.0848438 0.408311-0.153779 0.304908-0.204156 0.220064-0.204156 0.100752-0.204156 0-0.100752 0 0.0159082L0 2.79985 0 3.85244C0 3.93728 0.0689356 4.00358 0.13522 4.03804 0.848438 4.25811 2.32525 5.19404 3.42822 7.0765 3.73313 7.60148 4.22629 8.31469 4.22629 9.74114 4.22629 10.9634 4.03804 12.252 3.73313 13.4398 3.68275 13.628 3.63238 13.7977 3.81797 13.864 4.00358 13.9329 4.0725 13.7977 4.14145 13.628 4.75125 12.1327 4.90504 10.571 4.90504 9.52107L4.90504 9.1976C4.8202 7.00757 3.56344 5.39554 3.56344 5.39554 3.61382 5.39554 2.00179 3.30891 1.5431 2.59569 0.917374 1.62794 0.609815 0.662842 0.593907 0.593907" transform="matrix(1.00184 0 0 1 590.18 479.067)"/><path d="M0.593907 0.593907C0.577998 0.543532 0.424219-0.050376 0.424219-0.0848438 0.408311-0.153779 0.304908-0.204156 0.220064-0.204156 0.100752-0.204156 0-0.100752 0 0.0159082L0 2.79985 0 3.85244C0 3.93728 0.0689356 4.00358 0.13522 4.03804 0.848438 4.25811 2.32525 5.19404 3.42822 7.0765 3.73313 7.60148 4.22629 8.31469 4.22629 9.74114 4.22629 10.9634 4.03804 12.252 3.73313 13.4398 3.68275 13.628 3.63238 13.7977 3.81797 13.864 4.00358 13.9329 4.0725 13.7977 4.14145 13.628 4.75125 12.1327 4.90504 10.571 4.90504 9.52107L4.90504 9.1976C4.8202 7.00757 3.56344 5.39554 3.56344 5.39554 3.61382 5.39554 2.00179 3.30891 1.5431 2.59569 0.917374 1.62794 0.609815 0.662842 0.593907 0.593907" transform="matrix(1.00184 0 0 1 750.258 477.476)"/><path d="M0 0C0 0.469293 0.379147 0.848438 0.848438 0.848438 1.31773 0.848438 1.69688 0.469293 1.69688 0 1.69688-0.469293 1.31773-0.848438 0.848438-0.848438 0.379147-0.848438 0-0.469293 0 0" transform="matrix(1.00184 0 0 1 720.7 493.915)"/><path d="M0 0C0 0.469293 0.379147 0.848438 0.848438 0.848438 1.31773 0.848438 1.69688 0.469293 1.69688 0 1.69688-0.469293 1.31773-0.848438 0.848438-0.848438 0.379147-0.848438 0-0.469293 0 0" transform="matrix(1.00184 0 0 1 720.7 489.672)"/><path d="M0.567062-30.7559C1.65313-31.9189 3.81566-34.3217 3.81566-38.7524 3.81566-44.3558 1.39363-50.0264 1.39363-53.4961 1.39363-57.2444 3.5946-60.8006 3.66188-60.8967 3.72915-61.0024 3.71955-61.137 3.65226-61.1851 3.58499-61.2235 3.46004-61.1851 3.37354-61.0985 3.29665-61.0024 0-57.6673 0-52.6599 0-47.2103 2.15291-43.4139 2.15291-36.34 2.15291-34.9944 1.57624-32.8223 0.0576673-30.9577-0.0480561-30.8617-0.0576673-30.6886 0.0384449-30.5733L0.0384449-30.5637 0.0576673-30.5445C1.57624-28.6799 2.15291-26.5174 2.15291-25.1718 2.15291-18.0884 0-14.2919 0-8.85192 0-3.84449 3.29665-0.490172 3.37354-0.403671 3.46004-0.31717 3.56577-0.269114 3.65226-0.31717 3.73877-0.374838 3.73877-0.480561 3.66188-0.605507 3.57537-0.730453 1.39363-4.25777 1.39363-8.00613 1.39363-11.4758 3.81566-17.1657 3.81566-22.7594 3.81566-27.2478 1.65313-29.6026 0.567062-30.7559" transform="matrix(1.00184 0 0 1 380.04 540.579)"/></g></g></g></svg>